<svg viewBox="0 0 64 24" xmlns="http://www.w3.org/2000/svg">
 <path d="M17.051 5.318c1.613 1.612 2.42 3.587 2.42 5.922 0 2.336-.793 4.29-2.378 5.86-1.682 1.655-3.67 2.482-5.963 2.482-2.266 0-4.22-.82-5.86-2.461-1.64-1.64-2.46-3.6-2.46-5.88s.82-4.255 2.46-5.923c1.598-1.613 3.552-2.42 5.86-2.42 2.335 0 4.309.807 5.921 2.42zM6.356 6.402c-1.364 1.377-2.045 2.99-2.045 4.84 0 1.85.674 3.45 2.024 4.798 1.349 1.35 2.955 2.024 4.82 2.024 1.863 0 3.483-.682 4.86-2.045 1.308-1.265 1.962-2.857 1.962-4.777 0-1.905-.665-3.521-1.993-4.85-1.329-1.328-2.938-1.992-4.83-1.992-1.891 0-3.491.667-4.798 2.002zm3.587 4.026c-.208-.454-.52-.68-.936-.68-.735 0-1.103.494-1.103 1.484s.368 1.484 1.103 1.484c.486 0 .832-.24 1.04-.724l1.02.543c-.486.863-1.215 1.295-2.187 1.295-.75 0-1.35-.23-1.8-.69-.452-.459-.677-1.092-.677-1.9 0-.793.232-1.423.697-1.89.465-.466 1.045-.7 1.739-.7 1.027 0 1.763.405 2.207 1.214l-1.103.564zm4.795 0c-.209-.454-.514-.68-.917-.68-.75 0-1.125.494-1.125 1.484s.375 1.484 1.125 1.484c.486 0 .827-.24 1.021-.724l1.042.543c-.485.863-1.213 1.295-2.183 1.295-.748 0-1.347-.23-1.798-.69-.45-.459-.675-1.092-.675-1.9 0-.793.229-1.423.686-1.89.457-.466 1.039-.7 1.746-.7 1.025 0 1.76.405 2.203 1.214l-1.125.564z"/>
 <path d="M1.2.8C.54.8 0 1.34 0 2v20.933c0 .15.117.267.267.267h63.466c.15 0 .267-.117.267-.267V2c0-.66-.54-1.2-1.2-1.2H1.2zm0 .533h61.6c.362 0 .667.305.667.667v14.533H19.433a9.488 9.488 0 0 1-8.3 4.9c-3.57 0-6.67-1.98-8.283-4.9H.533V2c0-.362.305-.667.667-.667zm45.433 16.85c.185 0 .364.009.534.05.169.041.318.108.45.2.132.093.239.223.316.367.077.144.117.312.117.517h-.767a.658.658 0 0 0-.066-.267.45.45 0 0 0-.15-.167.65.65 0 0 0-.217-.083 1.2 1.2 0 0 0-.25-.017 1.04 1.04 0 0 0-.2.017.482.482 0 0 0-.167.067.436.436 0 0 0-.116.133.32.32 0 0 0-.05.183c0 .07.007.124.033.167.026.043.09.08.167.117.077.036.18.08.316.116.137.037.313.078.534.134.065.013.15.032.266.066.27.074.502.246.65.483a.856.856 0 0 1 .134.484c0 .162-.038.312-.1.45a.958.958 0 0 1-.284.35 1.29 1.29 0 0 1-.45.233c-.183.056-.393.1-.633.1a2.24 2.24 0 0 1-.567-.083 1.404 1.404 0 0 1-.483-.217 1.197 1.197 0 0 1-.35-.4 1.182 1.182 0 0 1-.117-.566h.767c0 .118.007.217.05.3a.59.59 0 0 0 .183.2c.071.05.155.092.25.116.096.025.182.05.284.05.069 0 .154-.021.233-.033a.741.741 0 0 0 .217-.067.454.454 0 0 0 .166-.133.319.319 0 0 0-.016-.45.693.693 0 0 0-.234-.15 2.408 2.408 0 0 0-.333-.1 9.168 9.168 0 0 1-.383-.1 3.281 3.281 0 0 1-.384-.117 1.412 1.412 0 0 1-.35-.183.852.852 0 0 1-.233-.283.885.885 0 0 1-.083-.417c0-.182.04-.35.116-.483.078-.134.175-.244.3-.334a1.25 1.25 0 0 1 .417-.183c.158-.043.325-.067.483-.067zm-16.3.084H32c.168 0 .328.02.467.05a.96.96 0 0 1 .35.133c.1.073.18.17.233.283a.877.877 0 0 1 .083.4.79.79 0 0 1-.133.45.865.865 0 0 1-.35.3c.218.063.376.16.483.317a.98.98 0 0 1 .167.567c0 .178-.03.336-.1.466a.908.908 0 0 1-.283.317 1.23 1.23 0 0 1-.4.183 1.83 1.83 0 0 1-.467.067h-1.717v-3.533zm3.1 0h.867l.833 1.4.817-1.4h.867l-1.3 2.166V21.8h-.784v-1.383l-1.3-2.15zm16.15 0h.8L51.7 21.8h-.8l-.267-.783h-1.316l-.284.783h-.783l1.333-3.533zm-18.466.6v.833h.783a.536.536 0 0 0 .333-.1c.09-.066.134-.185.134-.333a.406.406 0 0 0-.034-.2.306.306 0 0 0-.116-.117.58.58 0 0 0-.184-.067 1.12 1.12 0 0 0-.2-.016h-.716zm18.85.266l-.45 1.3h.916l-.45-1.3h-.016zm-18.85 1.084v.983h.833c.076 0 .147-.018.217-.033a.529.529 0 0 0 .183-.067.384.384 0 0 0 .117-.15.435.435 0 0 0 .05-.217c0-.18-.048-.322-.15-.4a.639.639 0 0 0-.4-.116h-.85z"/>
 <path d="M48.93 2.606c-1.714 0-3.164.598-4.35 1.793-1.219 1.237-1.827 2.7-1.827 4.39 0 1.691.608 3.145 1.826 4.36 1.218 1.217 2.668 1.825 4.35 1.825 1.703 0 3.179-.613 4.428-1.84 1.176-1.165 1.765-2.613 1.765-4.344 0-1.731-.6-3.196-1.796-4.391-1.198-1.195-2.663-1.793-4.397-1.793h.001zm.015 1.113c1.403 0 2.595.494 3.576 1.484.99.98 1.486 2.175 1.486 3.587 0 1.422-.485 2.602-1.455 3.54-1.022 1.01-2.224 1.515-3.607 1.515s-2.575-.5-3.576-1.5-1.502-2.184-1.502-3.555.506-2.567 1.517-3.587c.97-.99 2.157-1.484 3.56-1.484h.001z"/>
 <path d="M46.188 7.917c.246-1.556 1.342-2.388 2.715-2.388 1.974 0 3.177 1.433 3.177 3.343 0 1.864-1.28 3.312-3.208 3.312-1.327 0-2.514-.816-2.73-2.418h1.557c.047.832.587 1.124 1.358 1.124.879 0 1.45-.816 1.45-2.064 0-1.31-.493-2.003-1.42-2.003-.678 0-1.264.247-1.388 1.094l.454-.002-1.227 1.226L45.7 7.915l.488.002z"/>
 <g transform="translate(31.905 4.557)">
  <path d="M3.546 2.702a.4.4 0 0 0-.4-.4H.616a.4.4 0 0 0-.399.4v2.53h.705v2.995H2.84V5.23h.706V2.7z"/>
  <ellipse cx="1.882" cy="1.104" rx=".865" ry=".865"/>
 </g>
 <path d="M33.777 2.606c-1.713 0-3.163.597-4.35 1.793-1.218 1.237-1.827 2.7-1.827 4.39 0 1.69.61 3.144 1.827 4.36 1.218 1.216 2.668 1.825 4.35 1.825 1.703 0 3.18-.614 4.428-1.84 1.177-1.165 1.765-2.613 1.765-4.345 0-1.731-.599-3.195-1.796-4.39-1.197-1.196-2.663-1.793-4.397-1.793zm.016 1.113c1.403 0 2.595.494 3.576 1.484.99.979 1.486 2.175 1.486 3.586 0 1.423-.485 2.603-1.455 3.54-1.022 1.01-2.224 1.516-3.607 1.516s-2.575-.5-3.576-1.5c-1.002-1-1.502-2.185-1.502-3.556 0-1.37.506-2.566 1.517-3.586.97-.99 2.157-1.484 3.56-1.484h.001z"/>
</svg>
