<svg viewBox="0 0 128 46" xmlns="http://www.w3.org/2000/svg"><path d="m34.102 9.636c3.226 3.224 4.84 7.174 4.84 11.844 0 4.672-1.586 8.58-4.756 11.72-3.364 3.31-7.34 4.964-11.926 4.964-4.532 0-8.44-1.64-11.72-4.922-3.28-3.28-4.92-7.2-4.92-11.76s1.64-8.51 4.92-11.846c3.196-3.226 7.104-4.84 11.72-4.84 4.67 0 8.618 1.614 11.842 4.84zm-21.39 2.168c-2.728 2.754-4.09 5.98-4.09 9.68s1.348 6.9 4.048 9.596c2.698 2.7 5.91 4.048 9.64 4.048 3.726 0 6.966-1.364 9.72-4.09 2.616-2.53 3.924-5.714 3.924-9.554 0-3.81-1.33-7.042-3.986-9.7-2.658-2.656-5.876-3.984-9.66-3.984-3.782 0-6.982 1.334-9.596 4.004zm7.174 8.052c-.416-.908-1.04-1.36-1.872-1.36-1.47 0-2.206.988-2.206 2.968s.736 2.968 2.206 2.968c.972 0 1.664-.48 2.08-1.448l2.04 1.086c-.972 1.726-2.43 2.59-4.374 2.59-1.5 0-2.7-.46-3.6-1.38-.904-.918-1.354-2.184-1.354-3.8 0-1.586.464-2.846 1.394-3.78.93-.932 2.09-1.4 3.478-1.4 2.054 0 3.526.81 4.414 2.428zm9.59 0c-.418-.908-1.028-1.36-1.834-1.36-1.5 0-2.25.988-2.25 2.968s.75 2.968 2.25 2.968c.972 0 1.654-.48 2.042-1.448l2.084 1.086c-.97 1.726-2.426 2.59-4.366 2.59-1.496 0-2.694-.46-3.596-1.38-.9-.918-1.35-2.184-1.35-3.8 0-1.586.458-2.846 1.372-3.78.914-.932 2.078-1.4 3.492-1.4 2.05 0 3.52.81 4.406 2.428z"/><path d="m2.4.6c-1.32 0-2.4 1.08-2.4 2.4v41.866c0 .3.234.534.534.534h126.932c.3 0 .534-.234.534-.534v-41.866c0-1.32-1.08-2.4-2.4-2.4zm0 1.066h123.2c.724 0 1.334.61 1.334 1.334v29.066h-88.068c-3.339 6.043-9.696 9.796-16.6 9.8-7.14 0-13.34-3.96-16.566-9.8h-4.634v-29.066c0-.724.61-1.334 1.334-1.334zm90.866 33.7c.37 0 .728.018 1.068.1.338.082.636.216.9.4.264.186.478.446.632.734s.234.624.234 1.034h-1.534c-.006-.185-.051-.367-.132-.534-.07-.135-.173-.25-.3-.334-.134-.081-.281-.137-.434-.166-.165-.029-.333-.04-.5-.034-.134-.002-.268.01-.4.034-.119.023-.232.069-.334.134-.095.072-.174.162-.232.266-.07.109-.104.237-.1.366 0 .14.014.248.066.334s.18.16.334.234c.154.072.36.16.632.232.274.074.626.156 1.068.268.13.026.3.064.532.132.54.148 1.004.492 1.3.966.184.289.277.626.268.968 0 .324-.076.624-.2.9-.131.275-.326.515-.568.7-.266.213-.572.372-.9.466-.366.112-.786.2-1.266.2-.384-.007-.765-.062-1.134-.166-.347-.082-.674-.229-.966-.434-.29-.211-.53-.484-.7-.8-.17-.352-.251-.741-.234-1.132h1.534c0 .236.014.434.1.6.089.16.215.297.366.4.142.1.31.184.5.232.192.05.364.1.568.1.138 0 .308-.042.466-.066.151-.022.297-.067.434-.134.13-.061.244-.152.332-.266.239-.258.225-.66-.032-.9-.134-.131-.293-.233-.468-.3-.217-.083-.439-.149-.666-.2-.257-.061-.512-.128-.766-.2-.261-.062-.517-.14-.768-.234-.249-.089-.485-.212-.7-.366-.195-.153-.354-.346-.466-.566-.122-.26-.179-.547-.166-.834 0-.364.08-.7.232-.966.156-.268.35-.488.6-.668.253-.172.536-.296.834-.366.316-.086.65-.134.966-.134zm-32.6.168h3.334c.336 0 .656.04.934.1.249.042.486.132.7.266.2.146.36.34.466.566.118.25.174.524.166.8.005.32-.088.634-.266.9-.175.26-.417.467-.7.6.436.126.752.32.966.634.225.335.342.731.334 1.134 0 .356-.06.672-.2.932-.136.253-.33.47-.566.634-.242.169-.513.293-.8.366-.304.085-.618.13-.934.134h-3.434zm6.2 0h1.734l1.666 2.8 1.634-2.8h1.734l-2.6 4.332v2.734h-1.568v-2.766zm32.3 0h1.6l2.634 7.066h-1.6l-.534-1.566h-2.632l-.568 1.566h-1.566zm-36.932 1.2v1.666h1.566c.238.009.472-.061.666-.2.18-.132.268-.37.268-.666.012-.137-.012-.275-.068-.4-.054-.098-.135-.179-.232-.234-.114-.065-.239-.111-.368-.134-.132-.023-.266-.033-.4-.032zm37.7.532-.9 2.6h1.832l-.9-2.6zm-37.7 2.168v1.966h1.666c.152 0 .294-.036.434-.066.129-.022.253-.067.366-.134.102-.079.182-.182.234-.3.07-.134.105-.283.1-.434 0-.36-.096-.644-.3-.8-.233-.165-.515-.246-.8-.232z"/><path d="m97.86 4.212c-3.428 0-6.328 1.196-8.7 3.586-2.438 2.474-3.654 5.4-3.654 8.78 0 3.382 1.216 6.29 3.652 8.72 2.436 2.434 5.336 3.65 8.7 3.65 3.406 0 6.358-1.226 8.856-3.68 2.352-2.33 3.53-5.226 3.53-8.688s-1.2-6.392-3.592-8.782c-2.396-2.39-5.326-3.586-8.794-3.586zm.03 2.226c2.806 0 5.19.988 7.152 2.968 1.98 1.96 2.972 4.35 2.972 7.174 0 2.844-.97 5.204-2.91 7.08-2.044 2.02-4.448 3.03-7.214 3.03s-5.15-1-7.152-3-3.004-4.368-3.004-7.11 1.012-5.134 3.034-7.174c1.94-1.98 4.314-2.968 7.12-2.968z"/><path d="m92.376 14.834c.492-3.112 2.684-4.776 5.43-4.776 3.948 0 6.354 2.866 6.354 6.686 0 3.728-2.56 6.624-6.416 6.624-2.654 0-5.028-1.632-5.46-4.836h3.114c.094 1.664 1.174 2.248 2.716 2.248 1.758 0 2.9-1.632 2.9-4.128 0-2.62-.986-4.006-2.84-4.006-1.356 0-2.528.494-2.776 2.188l.908-.004-2.454 2.452-2.452-2.452z"/><path d="m70.902 13.518c0-.212-.084-.416-.234-.566s-.354-.234-.566-.234h-5.06c-.441.001-.798.359-.798.8v5.06h1.41v5.99h3.836v-5.994h1.412v-5.06z"/><path d="m69.304 10.322c0 .955-.775 1.73-1.73 1.73s-1.73-.775-1.73-1.73.775-1.73 1.73-1.73 1.73.775 1.73 1.73z"/><path d="m67.554 4.212c-3.426 0-6.326 1.194-8.7 3.586-2.436 2.474-3.654 5.4-3.654 8.78s1.22 6.288 3.654 8.72c2.436 2.432 5.336 3.65 8.7 3.65 3.406 0 6.36-1.228 8.856-3.68 2.354-2.33 3.53-5.226 3.53-8.69 0-3.462-1.198-6.39-3.592-8.78-2.394-2.392-5.326-3.586-8.794-3.586zm.032 2.226c2.806 0 5.19.988 7.152 2.968 1.98 1.958 2.972 4.35 2.972 7.172 0 2.846-.97 5.206-2.91 7.08-2.044 2.02-4.448 3.032-7.214 3.032s-5.15-1-7.152-3c-2.004-2-3.004-4.37-3.004-7.112 0-2.74 1.012-5.132 3.034-7.172 1.94-1.98 4.314-2.968 7.12-2.968z"/></svg>