<svg viewBox="0 0 80 15" xmlns="http://www.w3.org/2000/svg"><path d="m0 0h80v15h-80zm79 1h-78v13h78z"/><path d="m18.038 2.384c1.483 1.403 2.225 3.12 2.225 5.15 0 2.032-.729 3.73-2.187 5.096-1.547 1.439-3.375 2.158-5.485 2.158-2.085 0-3.882-.713-5.39-2.14-1.51-1.426-2.264-3.13-2.264-5.114 0-1.982.754-3.699 2.264-5.15 1.469-1.402 3.267-2.103 5.389-2.103 2.149 0 3.964.701 5.447 2.103zm-9.838.944c-1.254 1.197-1.881 2.6-1.881 4.208 0 1.609.62 3 1.862 4.172 1.241 1.174 2.719 1.76 4.433 1.76 1.715 0 3.205-.593 4.471-1.777 1.204-1.102 1.805-2.485 1.805-4.154 0-1.657-.612-3.063-1.833-4.218-1.222-1.155-2.703-1.732-4.443-1.732s-3.21.58-4.414 1.74zm3.3 3.501c-.19-.395-.478-.592-.86-.592-.677 0-1.016.43-1.016 1.29 0 .861.34 1.291 1.016 1.291.446 0 .765-.21.957-.63l.937.472c-.446.75-1.118 1.126-2.01 1.126-.69 0-1.242-.2-1.657-.599-.416-.4-.623-.951-.623-1.653 0-.69.214-1.238.642-1.642.427-.407.96-.61 1.598-.61.946 0 1.623.353 2.032 1.055zm4.411 0c-.192-.395-.473-.592-.844-.592-.69 0-1.034.43-1.034 1.29 0 .861.344 1.291 1.034 1.291.447 0 .76-.21.94-.63l.959.472c-.446.75-1.117 1.126-2.009 1.126-.688 0-1.24-.2-1.654-.599-.413-.4-.62-.951-.62-1.653 0-.69.21-1.238.63-1.642.42-.407.956-.61 1.606-.61.944 0 1.62.353 2.027 1.055zm6.153 6.304h55.949v-11.2l-55.927.012c1.277 1.627 2.134 3.546 2.134 5.6 0 2.063-.868 3.958-2.156 5.588zm8.47-5.797c.33.09.586.257.768.5.18.242.271.54.271.892 0 .54-.194.943-.583 1.208s-.98.397-1.774.397h-2.553v-5.6h2.31c.828 0 1.427.118 1.797.353.373.235.56.611.56 1.129 0 .272-.068.505-.204.698-.136.19-.333.33-.592.423zm.906-2.603h1.682l1.358 1.997 1.359-1.996h1.686l-2.274 3.241v2.36h-1.538v-2.36l-2.273-3.24zm5.254 2.844h2.51v1.092h-2.51v-1.093zm7.864-2.667v1.185c-.31-.132-.631-.236-.96-.311-.289-.067-.585-.103-.882-.105-.368 0-.64.047-.816.142-.168.082-.271.256-.263.443 0 .15.058.267.175.352.12.083.336.154.648.214l.655.124c.663.125 1.135.315 1.415.57s.42.618.42 1.088c0 .617-.197 1.078-.588 1.38-.39.3-.985.45-1.786.45-.382 0-.764-.034-1.14-.101-.388-.069-.77-.17-1.142-.3v-1.221c.353.179.722.324 1.103.432.357.095.7.143 1.03.143.336 0 .594-.053.772-.158.168-.087.272-.261.268-.45.008-.157-.06-.308-.184-.405-.12-.095-.361-.18-.723-.255l-.596-.124c-.596-.12-1.033-.311-1.31-.574-.275-.262-.412-.616-.412-1.061 0-.558.192-.987.576-1.287.383-.3.935-.45 1.654-.45.327 0 .664.024 1.01.071.347.045.705.114 1.076.207zm5.366 4.402h-2.406l-.38 1.02h-1.546l2.21-5.6h1.834l2.21 5.6h-1.547zm-2.022-1.039h1.634l-.815-2.228zm-18.798 1.078c.309 0 .54-.062.695-.184.157-.123.236-.308.236-.555 0-.243-.077-.424-.232-.544-.154-.123-.387-.184-.7-.184h-.902v1.467zm-.052-2.45c.242 0 .426-.05.551-.15.126-.1.188-.247.188-.442 0-.193-.062-.34-.188-.44-.125-.102-.309-.153-.551-.153h-.851v1.185z"/></svg>