<svg viewBox="0 0 80 16" xmlns="http://www.w3.org/2000/svg">
 <path d="M0 0h80v15H0V0zm79 1H1v13h78V1z"/>
 <path d="M18.038 2.384c1.483 1.403 2.225 3.12 2.225 5.15 0 2.032-.729 3.73-2.187 5.096-1.547 1.439-3.375 2.158-5.485 2.158-2.085 0-3.882-.713-5.39-2.14-1.51-1.426-2.264-3.13-2.264-5.114 0-1.982.754-3.699 2.264-5.15C8.67.982 10.468.281 12.59.281c2.149 0 3.964.701 5.447 2.103h.001zM8.2 3.328c-1.254 1.197-1.881 2.6-1.881 4.208 0 1.609.62 3 1.862 4.172 1.241 1.174 2.719 1.76 4.433 1.76 1.715 0 3.205-.593 4.471-1.777 1.204-1.102 1.805-2.485 1.805-4.154 0-1.657-.612-3.063-1.833-4.218-1.222-1.155-2.703-1.732-4.443-1.732-1.74 0-3.21.58-4.414 1.74v.001zm3.3 3.501c-.19-.395-.478-.592-.86-.592-.677 0-1.016.43-1.016 1.29 0 .861.34 1.291 1.016 1.291.446 0 .765-.21.957-.63l.937.472c-.446.75-1.118 1.126-2.01 1.126-.69 0-1.242-.2-1.657-.599-.416-.4-.623-.951-.623-1.653 0-.69.214-1.238.642-1.642.427-.407.96-.61 1.598-.61.946 0 1.623.353 2.032 1.055l-1.016.492zm4.411 0c-.192-.395-.473-.592-.844-.592-.69 0-1.034.43-1.034 1.29 0 .861.344 1.291 1.034 1.291.447 0 .76-.21.94-.63l.959.472c-.446.75-1.117 1.126-2.009 1.126-.688 0-1.24-.2-1.654-.599-.413-.4-.62-.951-.62-1.653 0-.69.21-1.238.63-1.642.42-.407.956-.61 1.606-.61.944 0 1.62.353 2.027 1.055l-1.035.492zm6.153 6.304h55.949v-11.2l-55.927.012c1.277 1.627 2.134 3.546 2.134 5.6 0 2.063-.868 3.958-2.156 5.588zm8.47-5.797c.33.09.586.257.768.5.18.242.271.54.271.892 0 .54-.194.943-.583 1.208-.389.265-.98.397-1.774.397h-2.553v-5.6h2.31c.828 0 1.427.118 1.797.353.373.235.56.611.56 1.129 0 .272-.068.505-.204.698-.136.19-.333.33-.592.423zm.906-2.603h1.682L34.48 6.73l1.359-1.996h1.686l-2.274 3.241v2.36h-1.538v-2.36l-2.273-3.24v-.002zm5.254 2.844h2.51v1.092h-2.51V7.576v.001zm7.864-2.667v1.185a5.723 5.723 0 0 0-.96-.311 4.036 4.036 0 0 0-.882-.105c-.368 0-.64.047-.816.142a.47.47 0 0 0-.263.443c0 .15.058.267.175.352.12.083.336.154.648.214l.655.124c.663.125 1.135.315 1.415.57.28.255.42.618.42 1.088 0 .617-.197 1.078-.588 1.38-.39.3-.985.45-1.786.45a6.58 6.58 0 0 1-1.14-.101 7.41 7.41 0 0 1-1.142-.3V8.82a6.1 6.1 0 0 0 1.103.432c.357.095.7.143 1.03.143.336 0 .594-.053.772-.158a.496.496 0 0 0 .268-.45.483.483 0 0 0-.184-.405c-.12-.095-.361-.18-.723-.255l-.596-.124c-.596-.12-1.033-.311-1.31-.574-.275-.262-.412-.616-.412-1.061 0-.558.192-.987.576-1.287.383-.3.935-.45 1.654-.45.327 0 .664.024 1.01.071.347.045.705.114 1.076.207v.001zm5.366 4.402h-2.406l-.38 1.02h-1.546l2.21-5.6h1.834l2.21 5.6h-1.547l-.375-1.02zm-2.022-1.039h1.634l-.815-2.228-.819 2.228zM29.104 9.351c.309 0 .54-.062.695-.184.157-.123.236-.308.236-.555 0-.243-.077-.424-.232-.544-.154-.123-.387-.184-.7-.184h-.902v1.467h.903zm-.052-2.45c.242 0 .426-.05.551-.15.126-.1.188-.247.188-.442 0-.193-.062-.34-.188-.44-.125-.102-.309-.153-.551-.153h-.851v1.185h.851z"/>
</svg>
