<svg viewBox="0 0 512 512" xmlns="http://www.w3.org/2000/svg">
 <path d="m80 368h-64a16 16 0 0 0 -16 16v64a16 16 0 0 0 16 16h64a16 16 0 0 0 16-16v-64a16 16 0 0 0 -16-16zm0-320h-64a16 16 0 0 0 -16 16v64a16 16 0 0 0 16 16h64a16 16 0 0 0 16-16v-64a16 16 0 0 0 -16-16zm0 160h-64a16 16 0 0 0 -16 16v64a16 16 0 0 0 16 16h64a16 16 0 0 0 16-16v-64a16 16 0 0 0 -16-16zm416 176h-320a16 16 0 0 0 -16 16v32a16 16 0 0 0 16 16h320a16 16 0 0 0 16-16v-32a16 16 0 0 0 -16-16zm0-320h-320a16 16 0 0 0 -16 16v32a16 16 0 0 0 16 16h320a16 16 0 0 0 16-16v-32a16 16 0 0 0 -16-16zm0 160h-320a16 16 0 0 0 -16 16v32a16 16 0 0 0 16 16h320a16 16 0 0 0 16-16v-32a16 16 0 0 0 -16-16z"/>
</svg>