<svg viewBox="0 0 24 24" xmlns="http://www.w3.org/2000/svg"><path d="m0 0h24v24h-24z" fill="none"/><path d="m5 12.5c0 .313.461.858 1.53 1.393 1.384.692 3.347 1.107 5.47 1.107s4.086-.415 5.47-1.107c1.069-.535 1.53-1.08 1.53-1.393v-2.171c-1.65 1.02-4.173 1.671-7 1.671s-5.35-.652-7-1.671zm14 2.829c-1.65 1.02-4.173 1.671-7 1.671s-5.35-.652-7-1.671v2.171c0 .313.461.858 1.53 1.393 1.384.692 3.347 1.107 5.47 1.107s4.086-.415 5.47-1.107c1.069-.535 1.53-1.08 1.53-1.393zm-16 2.171v-10c0-2.485 4.03-4.5 9-4.5s9 2.015 9 4.5v10c0 2.485-4.03 4.5-9 4.5s-9-2.015-9-4.5zm9-7.5c2.123 0 4.086-.415 5.47-1.107 1.069-.535 1.53-1.08 1.53-1.393s-.461-.858-1.53-1.393c-1.384-.692-3.347-1.107-5.47-1.107s-4.086.415-5.47 1.107c-1.069.535-1.53 1.08-1.53 1.393s.461.858 1.53 1.393c1.384.692 3.347 1.107 5.47 1.107z"/></svg>