<svg xmlns="http://www.w3.org/2000/svg" viewBox="0 0 272.96 114.01">
 <path fill="#413000" d="M163.59 38.806c-5.985 0-10.442 2.939-10.442 10.012 0 5.33 2.938 9.028 10.12 9.028 6.088 0 10.222-3.587 10.222-9.248 0-6.416-3.7-9.792-9.9-9.792zm-11.97 49.94c-1.416 1.738-2.828 3.585-2.828 5.765 0 4.348 5.546 5.656 13.163 5.656 6.31 0 14.905-.441 14.905-6.308 0-3.487-4.135-3.703-9.36-4.03l-15.88-1.083zm32.201-49.611c1.955 2.503 4.025 5.985 4.025 10.989 0 12.075-9.465 19.146-23.169 19.146-3.485 0-6.64-.434-8.596-.977l-3.591 5.765 10.66.65c18.822 1.2 29.915 1.745 29.915 16.209 0 12.514-10.985 19.58-29.915 19.58-19.69 0-27.196-5.004-27.196-13.597 0-4.898 2.176-7.503 5.983-11.098-3.59-1.518-4.786-4.236-4.786-7.175 0-2.395 1.195-4.57 3.156-6.638 1.958-2.065 4.133-4.135 6.744-6.528-5.33-2.61-9.356-8.267-9.356-16.319 0-12.509 8.269-21.1 24.91-21.1 4.679 0 7.509.43 10.011 1.088h21.215v9.244l-10.01.762M212.98 19.366c-6.202 0-9.791-3.593-9.791-9.796 0-6.196 3.589-9.57 9.791-9.57 6.31 0 9.9 3.374 9.9 9.57 0 6.203-3.59 9.796-9.9 9.796zm-14.036 65.376v-8.59l5.55-.76c1.524-.22 1.74-.544 1.74-2.18V41.23c0-1.195-.325-1.96-1.416-2.283l-5.874-2.069 1.196-8.809h22.521v45.144c0 1.744.105 1.96 1.741 2.18l5.55.76v8.59h-31.009M272.97 80.526c-4.68 2.282-11.532 4.35-17.736 4.35-12.945 0-17.839-5.218-17.839-17.516v-28.5c0-.651 0-1.088-.874-1.088h-7.614V28.09c9.577-1.09 13.381-5.878 14.578-17.736h10.336v15.453c0 .759 0 1.088.872 1.088h15.338v10.877h-16.21V63.77c0 6.419 1.526 8.919 7.397 8.919 3.05 0 6.201-.76 8.812-1.74l2.94 9.577"/>
 <path fill="#f05133" d="M111.78 51.977L62.035 2.238a7.335 7.335 0 0 0-10.374 0l-10.329 10.33L54.434 25.67c3.046-1.028 6.537-.339 8.964 2.089a8.72 8.72 0 0 1 2.07 9.019l12.628 12.628c3.055-1.053 6.58-.373 9.02 2.071a8.726 8.726 0 0 1 0 12.345 8.73 8.73 0 0 1-14.25-9.494L61.09 42.551v30.991a8.805 8.805 0 0 1 2.308 1.65c3.41 3.41 3.41 8.934 0 12.349-3.41 3.409-8.938 3.409-12.345 0-3.41-3.415-3.41-8.939 0-12.348a8.736 8.736 0 0 1 2.859-1.905V42.01a8.614 8.614 0 0 1-2.86-1.905 8.728 8.728 0 0 1-1.88-9.544L36.255 17.642 2.15 51.747a7.339 7.339 0 0 0 0 10.378l49.742 49.74a7.338 7.338 0 0 0 10.376 0L111.78 62.36a7.341 7.341 0 0 0 0-10.379"/>
</svg>
