<svg xmlns="http://www.w3.org/2000/svg" viewBox="0 0 3600 3600">
 <path d="M0 1800V0h3600v3600H0V1800zm3476 1677c8-7 8-3346 1-3353-7-8-3345-10-3352-2-10 9-5 3340 4 3352 7 8 459 10 1676 9 917-1 1669-4 1671-6z"/>
 <path d="M625 3150c-39-15-49-39-48-109 1-43-1-59-7-46-4 12-15 27-24 34-9 8-16 29-16 51 0 61-56 93-93 52-12-13-17-37-17-79 0-51 4-63 25-83 20-19 25-33 25-71 0-39 6-55 29-81 19-23 28-44 28-67 0-34 22-61 50-61 8 0 34 21 59 48l45 47-4 103c-2 57 0 97 4 90 5-7 9-20 9-29s9-24 20-34c15-14 20-31 20-70 0-46 5-58 41-104 22-28 47-51 55-51s37 21 64 47l50 47v106c0 105 0 107 30 135 32 30 33 56 4 103-22 34-50 27-100-25l-45-48 4-80c4-64 3-74-5-50-6 17-17 37-25 46-7 9-17 34-21 55-5 29-19 50-52 80-50 46-75 56-105 44zm-48-242c-2-13-4-5-4 17-1 22 1 32 4 23 2-10 2-28 0-40zm1275 244c-13-2-28-13-33-25-6-12-23-30-40-39-28-16-29-20-29-86 0-63 2-71 29-96 24-23 29-35 24-56-4-21 0-31 14-38 11-6 47-38 81-72l63-61 57 6c43 5 62 13 77 31 14 16 31 24 51 24 17 0 38 8 47 18 56 62-48 128-107 69-15-15-41-26-67-30-39-5-48-2-76 23-23 21-33 39-33 60s-8 35-25 46c-23 15-26 23-23 68l3 51 99-3c75-3 103-7 111-19 6-8 27-18 45-23 22-5-4-6-66-3-117 7-144-2-144-47 0-52 28-61 181-58l133 3 23 33 22 33-6-103c-3-63-1-114 6-130 14-36 55-47 82-22 18 16 20 30 18 152-1 129 0 136 23 158 18 18 38 25 94 30l71 7 31-34 32-34v-132c0-132 0-133 26-150 30-19 51-11 70 26 11 22 12 22 22-8 10-29 14-31 64-32 29 0 103-2 163-4 127-4 158 5 163 49 6 47-23 68-87 64l-55-3-1 125v125h56c33 0 63 6 72 14 24 19 22 68-2 81-12 6-92 11-188 11-161 1-168 0-185-21-23-28-23-32 3-64 19-24 25-26 69-20 26 3 50 2 53-2 3-5 6-63 8-129l4-120-49 3c-39 3-53-1-72-19l-24-22v122c0 117-1 123-25 147-14 14-25 36-25 49s-10 35-22 49c-26 28-40 31-195 28l-102-2-46-42c-40-37-45-46-46-87 0-39-2-42-10-23-17 43-79 100-117 107-19 3-42 15-51 25-13 15-35 19-116 22-55 2-110 2-123 0zm-799-25c-15-20-18-41-17-135 1-74 5-116 14-127 19-23 56-18 80 12 19 25 21 37 17 130-3 82-7 107-22 123-24 26-49 25-72-3zm204 5c-14-15-17-41-17-134 0-108 1-116 24-137 19-18 28-21 44-12 11 6 22 18 26 26 5 14 10 12 28-9 13-14 38-29 55-32 30-6 37-2 83 47l50 54v91c0 98-12 124-58 124-37 0-53-39-50-121 3-70 2-74-19-77-15-2-32 8-52 30-26 29-29 38-24 75 10 75-47 122-90 75zm352-4c-8-15-11-62-10-133 3-119 13-145 57-145 40 0 54 35 54 138 0 118-16 162-59 162-21 0-34-7-42-22zm-557-300c-15-15-15-61 0-76 27-27 88 0 88 40 0 36-62 62-88 36zm560 0c-18-18-14-53 8-73 27-25 73-10 78 24 7 45-55 80-86 49zm203-170c-11-7-65-15-120-19s-123-15-152-24c-49-17-53-17-85 0-48 26-281 36-405 18-91-13-120-48-94-116 13-34 98-116 129-124 48-12 77-32 107-74 17-24 42-46 55-50 14-3 41-22 61-40 19-19 53-43 75-54 41-21 139-91 189-136 17-15 39-30 51-33 11-4 27-19 34-34 21-41 41-62 60-62 10 0 24-7 31-16s36-29 64-45c29-16 79-54 112-84 34-30 64-55 67-55 6 0 129-89 175-127 48-40 72-52 102-53 33 0 48-18 56-65 6-39 34-65 71-65 33 0 102-42 102-62 0-15-9-18-44-18-55 0-76 8-76 27 0 34-40 71-90 83-36 9-54 19-63 37-7 13-35 41-63 61-27 21-57 54-67 75-13 25-33 45-60 58-23 12-54 34-69 50s-35 29-45 29c-11 0-38 18-62 40-33 31-51 40-78 40s-49 12-101 55c-37 30-82 67-100 81-19 15-56 38-83 50-35 17-49 29-49 44 0 33-35 60-78 60-29 0-48 9-86 40-26 22-58 40-70 40-11 0-41 6-66 14-42 12-45 16-50 52-5 35-9 40-48 54-26 9-66 37-100 71-31 31-71 63-87 72-17 8-38 24-49 35-10 12-32 24-49 28-55 12-180 76-205 105-32 39-58 37-83-5-11-19-31-42-45-50-30-21-31-55-3-130l22-57-20-22c-17-19-21-41-27-153-3-80-12-149-22-175-11-31-14-63-10-108 4-44 1-71-8-90-25-48-29-98-12-141 15-39 15-43-4-85-22-48-24-75-11-121 5-19 5-51-1-80-5-27-11-87-13-134-1-47-6-101-10-122-8-43-4-51 57-107 39-35 59-45 115-57 87-18 109-18 190 3 62 15 69 15 118-2 29-9 58-14 64-10 7 3 30-3 52-14 49-26 146-28 194-5 30 14 36 14 57 0 28-18 212-16 231 3 15 15 57 13 87-4s90-19 141-4c33 10 45 9 101-13 35-14 81-28 104-31 22-4 69-16 105-28 57-18 70-19 117-8 49 12 54 11 76-10 20-19 31-22 58-16 33 7 32 7-19-36l-53-43v-72c0-65 2-75 22-85 12-6 32-24 46-40 21-26 30-29 84-29 58 0 61 1 109 49 47 47 49 51 49 106 0 57-12 95-31 95-6 0-22 14-36 30-22 27-31 30-81 30-30 0-53 2-51 5 7 6 217 27 274 27 157-2 275-10 314-21 36-10 48-10 76 3 47 22 58 40 53 86-4 47 5 50 53 14 27-20 42-25 73-21 62 8 75 31 95 174 4 29 15 61 25 72 15 16 17 29 11 69-5 37-2 58 10 82 13 26 15 47 10 108-4 43-13 96-21 120-13 41-13 45 15 100 38 77 42 101 32 212-10 117 2 169 75 323 26 56 26 60 14 115-8 31-14 79-14 105-1 41-6 53-31 74-32 28-43 44-76 111-11 24-27 46-35 49-7 3-33-4-56-15-24-11-68-23-98-25-30-3-69-9-87-12-27-6-36-3-57 19-33 36-78 48-132 35-25-7-85-8-151-5-196 12-259 8-310-16-17-9-32-6-69 11-41 20-53 21-88 12-115-30-162-32-215-11-59 23-69 24-96 8zm993-142c53-36 116-43 196-23 86 23 122 4 133-70 3-21 14-56 24-79 22-48 24-104 5-142-7-15-17-47-21-72-4-31-15-52-33-67-17-15-27-35-31-65-5-33-12-45-31-54-59-27-69-27-97 5-15 17-35 31-44 31s-24 10-35 21c-43 49-97 74-168 79-38 3-71 10-73 16s21 22 52 34c61 25 75 42 75 93 0 45-20 60-83 63-56 2-126-26-161-65-11-12-27-21-37-21-50 0-70-140-28-194 11-14 26-26 34-26 7 0 18-6 24-14 8-10 23-13 44-9 24 4 37 0 51-16 16-18 31-21 98-21 85 0 70 7 216-92 14-9 30-24 35-33 19-35 57-38 114-9 39 19 58 23 65 16 12-12 13-9-61-107-40-52-43-61-37-99 4-22 8-57 10-76s9-60 16-91c13-53 12-58-8-84-17-21-22-41-22-86 0-68-13-109-36-109-9 0-43 27-75 60s-65 60-73 60c-9 0-40 20-70 45-31 25-60 45-65 45s-38 25-74 55c-35 30-72 55-81 55-30 0-156 101-156 125 0 27-107 95-149 95-23 0-91 38-91 51 0 5-17 17-37 28-21 11-61 39-90 63-77 63-125 98-137 98-6 0-17 9-24 20-7 12-24 25-37 30-14 5-25 17-25 27 0 9-9 27-21 39-16 18-28 21-55 17-29-5-35-2-46 23-26 61-70 103-145 140-41 20-91 54-111 74-21 21-56 47-80 59-45 23-82 71-82 108 0 23 1 23 103 17 93-6 109-4 180 20 91 31 202 35 262 10 21-8 45-12 54-8 16 7 47 12 191 33 67 10 78 9 100-7 43-32 58-32 141-5 75 25 84 26 132 14 29-7 68-13 87-13 49 1 212 20 218 26 5 6 7 5 70-38zM685 2380c26-27 35-30 65-25 27 5 40 1 58-15 12-11 22-29 22-38 0-10 13-29 30-44l30-26-5-124c-3-67-11-146-17-174-13-64 3-107 43-112 65-8 112 95 113 246 1 62 5 85 16 92s18 3 27-18c6-15 29-45 52-66 30-30 51-41 89-47 35-5 58-16 80-38 25-26 38-31 76-31 35 0 46-4 46-15 0-38 31-74 87-101 144-68 182-109 150-158-9-13-19-41-23-62s-14-49-22-62c-14-21-13-26 5-50 29-39 47-38 97 4 47 39 66 76 66 125 0 24 4 29 25 29 29 0 146-90 194-150 18-23 43-45 56-50 14-5 24-20 28-38s19-39 39-53c18-12 52-40 75-61 32-29 51-38 77-38 30 0 42-8 88-61 49-56 55-60 86-54 28 5 39 1 73-29 21-20 43-36 49-36 5 0 21-17 34-37 37-54 6-67-53-21-32 25-84 23-177-7-112-36-160-41-229-20-41 12-75 15-114 10-40-4-66-2-93 9-21 9-54 16-75 16-21 1-49 7-63 15s-37 14-51 15c-15 0-38 9-52 20-30 24-58 25-99 4-31-16-70-13-97 9-9 7-51 12-105 12-91 0-91 0-88 24 1 14 16 36 33 50 24 21 31 34 32 66 0 39-13 133-32 223-16 79-62 103-116 61-27-22-27-22-20-113 4-50 12-108 18-129 9-33 8-44-8-74-11-20-35-51-54-70-28-28-43-35-91-40-43-4-66-1-90 11-27 13-40 14-76 5-41-11-47-9-82 15-21 14-50 26-64 26-13 0-40 7-58 16-26 13-39 14-69 5-52-16-114-31-127-31-17 0-14 196 3 259 13 45 13 63 3 106-11 44-10 56 4 82 10 20 15 55 15 100-1 146 13 317 29 340 12 19 13 29 3 49-9 21-8 34 8 70 15 33 19 57 14 94-5 45-3 53 28 94 19 25 39 46 45 46 5 0 23-14 39-30zm1920-1150c3-6-1-7-9-4-18 7-21 14-7 14 6 0 13-4 16-10zm86-30c24 0 43-9 66-32 62-60 31-75-47-23-50 34-101 79-73 66 12-6 36-11 54-11zm179-150c0-5-7-7-15-4-8 4-15 8-15 10s7 4 15 4 15-4 15-10zm-556-358l-7-42h-49c-42 0-49 3-44 16 3 9 6 29 6 44 0 27 3 29 43 32 23 2 46 0 50-3s5-24 1-47z"/>
 <path d="M983 805c-51-51-53-55-53-108s2-56 54-106l55-51h79c71 0 81 2 103 26 21 22 24 35 24 100s3 77 21 92c31 24 38 55 17 74-13 12-48 17-133 21l-115 5-52-53zm155-106c4-60-17-70-63-32-45 38-46 70-2 76 58 7 62 5 65-44zm587 137c-25-25-25-26-25-194 0-151 2-171 18-185 10-10 26-17 35-17 26 0 57 37 57 69v29l86 3c72 3 89 7 98 23 6 10 23 30 39 44 24 22 27 32 27 87 0 62 0 63-50 109l-49 46h-90c-49 0-96 3-105 6s-26-5-41-20zm206-117c16-17 29-40 29-50 0-17-8-19-75-19h-75v44c0 48 6 54 58 55 26 1 41-7 63-30zM387 832c-14-16-17-44-17-183 0-180 8-209 55-209 43 0 59 39 52 127l-6 75 28-26c26-25 31-26 154-26h127v-49c0-96 39-131 88-78 19 20 21 33 21 177 0 175-7 203-54 208-40 5-55-19-55-90v-58H532l-30 34c-21 24-29 42-25 56 7 26-22 60-52 60-12 0-29-8-38-18zm970 0c-14-15-17-41-17-140 0-119 0-122 25-138s27-16 54 10l27 26 25-26c22-24 29-26 88-22 52 3 67 8 82 27 25 31 24 86-1 111-28 28-47 25-80-10-15-16-33-30-39-30-5 0-24 15-40 33-27 28-31 39-31 88 0 41-5 60-18 72-24 22-55 21-75-1zm1226-12c-9-16-23-30-30-30-30 0-45-48-42-129 6-113 46-153 98-97 21 22 23 33 20 97l-4 73 35 8c56 12 60 7 60-82 0-67 3-83 20-100 26-26 55-25 74 2 12 17 16 49 16 134 0 110-1 113-26 133-22 18-41 21-115 21-87 0-88 0-106-30zm309 7c-20-21-22-34-21-133 0-96 3-112 22-131 26-29 38-29 67 2l23 24 19-24c17-22 27-25 83-25 57 0 66 3 84 26 25 32 27 81 5 112-21 30-48 28-85-8-35-33-43-31-84 18-22 27-26 38-21 67 15 76-45 122-92 72z"/>
 <path fill="#f3f402" d="M2055 2559c-27-4-72-10-100-14-27-4-62-11-76-16-20-8-36-6-64 5-59 25-170 21-262-10-69-23-90-26-188-23-100 4-110 2-113-14-10-49 34-115 100-148 21-11 56-37 76-57 21-21 70-54 110-74 65-32 122-82 122-106 0-5 10-21 21-36 17-22 28-27 57-24 25 2 37-2 43-14 5-10 13-26 17-35 5-10 19-23 31-29s29-21 37-33c8-11 21-21 28-21 14 0 60-33 133-93 26-22 63-50 82-63 20-14 54-38 76-54s50-29 63-30c35 0 122-48 131-73 17-41 144-147 177-147 9 0 46-25 81-55 36-30 69-55 74-55s34-20 65-45c30-25 60-45 67-45s40-27 73-60c71-71 98-77 120-25 7 19 14 61 14 93 0 46 5 66 22 87 20 25 21 31 10 79-7 28-17 88-23 133l-11 81 44 57c78 104 74 94 51 117l-21 20-54-26c-54-26-92-27-102 0-5 13-16 21-129 97-53 35-60 37-135 37-67 0-82 3-98 21-14 16-27 20-51 16-21-4-36-1-44 9-6 8-17 14-25 14-21 0-34 35-34 94 0 66 7 86 30 86 9 0 25 9 36 21 35 39 105 67 159 64 28-1 54-3 58-4 5 0 7-20 5-43-3-42-5-44-61-71-32-15-61-34-64-44-10-26 25-43 90-43 63 0 121-26 167-75 13-14 31-25 41-25 9 0 19-6 22-14s17-22 30-31c22-14 28-14 68 0 52 18 69 38 69 80 0 21 9 40 29 59s31 42 36 74c4 26 13 59 21 74 20 38 17 97-6 143-11 22-20 50-20 63 0 42-31 94-65 108-27 11-41 11-91-3-83-21-145-13-202 27-43 30-50 32-101 25-163-20-203-20-268-4-48 12-57 11-132-14-83-27-99-27-140 5-25 19-29 19-106 7zM590 2375c-40-52-42-58-37-105 5-37 1-61-14-94-16-36-17-49-8-70 10-20 9-30-3-49-16-23-30-194-29-340 0-45-5-80-15-100-14-26-15-38-4-82 10-43 10-60-3-106-18-64-18-252 0-270 12-12 74-2 149 23 25 9 38 7 64-6 18-9 45-16 58-16 14 0 43-12 64-26 35-24 41-26 82-15 36 9 49 8 76-5 24-13 47-15 92-10 53 5 64 10 101 48 64 65 83 108 70 155-6 21-14 79-18 130-7 85-6 92 13 102 54 29 72 12 90-89 36-194 36-219-5-245-32-21-46-60-32-87 10-19 17-20 103-14 76 6 95 4 105-8 20-24 66-29 100-12 40 21 68 20 98-4 14-11 37-20 52-20 14-1 37-7 51-15s42-14 62-15c21 0 56-7 78-16 32-13 53-15 93-8 41 7 63 5 107-10 67-22 122-18 234 18 96 32 144 33 180 5 34-27 80-23 84 7 3 22-33 63-117 132-33 28-46 33-71 27-27-6-35-1-86 54-47 51-62 61-89 61-26 0-47 11-91 50-31 28-61 50-65 50-5 0-12 12-15 28-8 32-32 62-50 62-7 0-27 18-44 40s-65 67-106 100c-62 51-81 61-107 58-26-2-33-8-35-28-8-73-15-92-50-125-42-40-66-44-82-14-9 15-8 25 3 42 7 12 17 38 20 57 4 19 15 49 24 67 30 56-5 94-152 168-41 21-64 39-74 60-8 17-17 37-21 45-4 9-27 17-59 20-41 5-56 11-74 33-17 21-35 30-75 36-59 9-104 44-127 99-9 20-21 32-33 32-35 0-47-28-48-114-1-89-26-194-52-213-9-7-26-13-38-13-28 0-40 45-26 92 6 18 13 93 16 167l5 133-29 30c-17 16-30 36-30 45 0 8-14 28-32 45-27 25-37 28-67 23-31-5-40-2-66 25-16 16-34 30-41 30-6 0-31-25-54-55z"/>
 <g fill="#f60101">
  <path d="M117 3485c-17-19-18-101-17-1690 0-1445 2-1671 14-1684 13-12 239-14 1686-14 1533 0 1673 1 1688 16s16 154 14 1689c-1 1406-4 1674-15 1685-12 12-280 15-1683 16-1658 2-1669 2-1687-18zm604-392c24-22 39-47 42-70 4-20 13-43 21-52s18-32 23-51c7-25 15-35 29-35 18 0 19 6 15 83l-3 84 38 39c49 50 70 50 83 2 10-35 8-40-19-68-29-30-30-33-30-134v-103l-41-39c-22-21-46-39-53-39-6 0-26 19-44 42-26 34-32 50-32 93 0 38-5 56-19 69-10 10-22 33-25 51-8 39-21 51-40 36-10-8-12-36-8-112l5-100-39-40c-21-21-44-39-51-39-17 0-34 35-27 54 4 10-6 30-25 51-25 29-31 44-31 84 0 38-5 52-25 71-23 22-26 31-23 90 3 65 3 65 33 65 28 0 30-3 33-40 2-23 12-49 24-62 16-17 22-37 22-80 1-51 3-58 21-58s20 7 21 95c3 143 2 140 27 150 31 12 57 3 98-37zm960 10c11-30 12-203 0-221-4-8-19-12-32-10-23 3-24 6-29 113-4 80-2 116 7 132 16 27 41 21 54-14zm405 8c8-10 31-22 53-26 28-5 47-16 68-43 40-51 45-69 28-103l-16-29h-132c-72 0-138 4-145 9-8 4-12 19-10 32 3 24 5 24 115 24 61 0 114 3 118 7 12 12-15 38-38 38-11 0-30 9-41 19-17 15-41 20-116 24-122 6-130 1-130-68 0-45 4-57 25-73 16-13 25-30 25-49 0-22 11-38 44-65 39-33 47-36 87-31 28 3 52 14 67 29 26 28 73 32 96 8 25-24 4-54-39-54-23 0-39-7-52-24-14-17-33-25-74-30l-55-7-73 70c-57 56-71 75-66 91 5 15-2 28-24 47-29 26-31 32-31 95 0 58 3 67 20 73 11 4 28 17 36 30 20 30 28 32 148 28 85-2 101-5 112-22zm562 1c6-9 12-28 12-42 0-16 10-35 26-49 25-22 26-23 22-156-3-141-10-162-47-150-20 6-21 13-21 141v135l-41 41-40 41-77-7c-71-7-79-10-102-39s-25-41-30-172c-5-134-6-140-27-143-40-6-46 26-38 196l8 156 31 31c29 29 36 30 136 36 126 6 171 2 188-19zm354 18c83 0 99-3 107-18 17-32-3-47-62-47-81 0-84-5-82-144 0-84 4-124 13-133 8-8 37-13 70-13 57 0 57 0 60-32 3-27 0-32-25-37-52-11-316 2-325 16-23 38 6 63 65 54 67-10 73 3 69 143-5 142-13 156-84 147-40-6-49-4-57 13-19 35-4 50 57 54 32 2 66 2 77 0 11-1 64-3 117-3zm-1883-22c12-35 13-196 1-218s-59-28-61-7c-5 64-3 216 4 230 11 25 46 21 56-5zm207-3c3-14 3-40 0-59-6-30-2-39 32-75 42-45 70-51 96-22 13 14 15 29 10 74-9 80 0 109 34 105l27-3 3-95 2-95-41-42c-22-24-47-43-54-43-28 0-65 20-65 35 0 30-31 29-55-1-20-25-25-27-39-15-13 11-16 35-16 131 0 64 3 120 7 123 3 4 17 7 29 7 17 0 25-7 30-25zm-211-315c0-20-6-26-27-28-25-3-28 0-28 28s3 31 28 28c21-2 27-8 27-28zm560 0c0-20-5-25-25-25s-26 6-28 28c-3 26-1 28 25 25 22-2 28-8 28-28zm236-160c53-21 100-19 215 11 35 9 47 8 88-12 37-17 52-20 69-11 32 15 104 25 167 23 88-3 281-4 332-1 40 3 51-1 84-29 31-28 42-32 68-26 17 4 56 9 86 12 30 2 73 13 96 24 22 10 45 19 50 19s17-17 27-38c30-63 45-86 74-109 23-19 28-31 29-70 0-27 6-74 14-105 12-55 12-59-14-115-73-154-85-206-75-323 10-111 6-135-32-212-28-55-28-59-15-100 8-24 17-77 21-120 5-61 3-82-10-108-12-24-15-45-10-82 6-40 4-53-11-69-10-11-21-43-25-72-10-66-25-136-31-143-3-3-22-8-42-11-29-4-44 0-76 22-53 37-70 29-70-34 0-47-2-51-34-66-29-14-40-14-77-4-39 11-157 19-314 21-66 0-238-18-298-33-45-10-50-10-73 11-22 22-27 23-76 11-47-11-60-10-117 8-36 12-83 24-105 28-23 3-69 17-104 31-56 22-68 23-101 13-51-15-111-13-141 4s-72 19-87 4c-19-19-203-21-231-3-21 14-27 14-57 0-48-23-145-21-194 5-22 11-45 17-52 14-6-4-35 1-64 10-49 17-56 17-118 2-81-21-103-21-191-3-58 13-76 22-113 58-42 40-44 45-38 83 4 22 8 78 10 125s8 107 13 134c6 29 6 61 1 80-13 46-11 73 11 121 19 42 19 46 4 85-17 43-13 93 12 141 9 19 12 46 8 90-4 45-1 77 10 108 10 26 19 95 22 175 6 112 10 134 27 153l20 22-22 57c-27 72-28 111 0 119 11 4 27 22 36 41 20 41 46 44 69 8 16-23 168-104 197-104 21 0 129-76 195-138 36-34 80-66 97-70 24-7 31-14 33-39 2-17 11-37 20-45 19-16 88-38 120-38 11 0 41-18 68-40 34-28 58-40 87-42 26-2 43-9 48-20 5-10 13-26 17-35 5-10 32-30 61-45s64-39 77-53c12-14 28-25 33-25s39-25 75-55c48-41 72-55 96-55 22 0 45-12 79-40 26-22 54-40 62-40 9 0 28-13 43-29s45-36 66-46c23-10 41-26 44-40 5-19 33-48 112-117 10-9 27-27 36-41 11-15 34-29 64-36 49-13 73-33 74-63 0-30 43-49 102-46 49 3 53 5 56 30 3 23-4 32-45 57-26 17-59 31-73 31-36 0-46 10-54 53-9 47-37 77-73 77-32 1-56 13-104 53-46 38-169 127-175 127-3 0-34 25-67 56-34 31-78 64-97 74s-48 30-63 44-36 26-47 26-25 15-37 38c-11 20-34 44-52 54-19 9-45 27-60 40-45 41-145 112-184 133-22 10-56 36-78 57-21 21-48 38-59 38-10 0-25 10-31 23-26 50-70 83-135 101-27 8-93 74-105 104-13 33-11 69 4 79 53 34 410 33 475-2 32-17 36-17 85 0 29 9 97 20 152 24s109 12 120 19c27 16 37 15 96-8zM1268 825c18-7 15-20-15-56-25-29-28-41-28-104 0-98-7-105-106-105-79 0-80 0-124 41-42 39-45 45-45 94 0 48 3 56 43 98l44 45 109-4c60-3 115-7 122-9zm619 6c68-1 73-3 112-39s41-41 41-95c0-53-3-61-37-95-36-36-40-37-123-42l-85-5-5-39c-5-42-27-63-54-53-14 6-16 28-16 176 0 189 4 201 62 196 18-2 65-4 105-4zM460 784c4-31 14-48 41-72l37-32h120c85 0 123 4 130 13 6 7 12 40 14 72 3 56 5 60 29 63 35 4 38-10 38-193 0-152-5-175-39-175-23 0-30 20-30 79 0 26-5 52-12 59-8 8-54 12-139 12-127 0-127 0-147 27-17 23-22 25-35 14-13-10-15-26-10-76 8-84-1-115-31-115-13 0-27 7-30 16-8 22-8 339 1 348 4 4 19 6 33 4 21-3 26-9 30-44zm970-19c4-46 12-69 33-97 41-53 63-57 99-19 44 47 78 36 78-23 0-50-13-59-81-64-59-4-64-3-86 24l-22 28-29-27c-18-18-35-25-45-21-15 5-17 24-17 128 0 68 3 126 7 130s19 6 33 4c23-3 25-8 30-63zm931 25c36-37 39-45 39-95 0-51-3-58-41-95s-46-40-96-40c-51 0-58 3-94 40-37 38-39 43-38 103 0 60 1 63 41 95 34 27 48 32 95 32 51 0 58-3 94-40zm430 30c17-10 19-22 19-120 0-120-4-140-29-140-33 0-41 22-41 107 0 95-9 106-76 96-55-8-62-21-56-103 5-75-5-100-39-100-26 0-39 38-39 115 0 72 6 95 25 95 8 0 23 14 35 30 21 29 24 30 101 30 44 0 89-5 100-10zm169-10c6-10 8-37 4-58-5-34-2-43 32-80 43-48 71-53 102-17 38 44 72 29 72-31 0-53-15-64-85-64-54 0-66 3-75 20-14 26-28 25-57-2-19-18-28-20-41-12-14 9-17 30-20 124-3 117 4 140 39 140 10 0 23-9 29-20z"/>
  <path d="M2522 1278c6-18 28-21 28-4 0 9-7 16-16 16s-14-5-12-12zm38-27c0-18 15-31 151-126 20-14 49-27 65-28 44-3 42 30-5 81-34 35-46 42-78 42-23 0-54 10-78 25-49 30-55 30-55 6zm262-187c3-20 65-60 76-50 3 4 0 19-9 34-18 33-73 45-67 16zM1075 763c-67-10-73-50-14-105 46-43 47-43 77-22 29 20 31 93 4 117-10 10-23 16-28 16-5-1-22-4-39-6zm737-3c-21-9-23-15-20-67l3-58 78-3c117-4 138 25 69 98-41 42-78 51-130 30zm394-12c-3-7-7-32-9-55-6-54 7-65 74-61l54 3 8 48c5 34 4 53-4 63-15 18-118 19-123 2z"/>
 </g>
</svg>
