<svg xmlns="http://www.w3.org/2000/svg" xmlns:xlink="http://www.w3.org/1999/xlink" width="260" height="270">
 <defs>
  <linearGradient id="c">
   <stop stop-color="#fe798e"/>
   <stop offset="1" stop-color="#9c2219"/>
  </linearGradient>
  <linearGradient id="b">
   <stop stop-color="#bff872"/>
   <stop offset="1" stop-color="#7de567"/>
  </linearGradient>
  <linearGradient id="a">
   <stop stop-color="#92cbe2"/>
   <stop offset="1" stop-color="#7f95fe"/>
  </linearGradient>
  <linearGradient xlink:href="#a" id="d" gradientUnits="userSpaceOnUse" gradientTransform="translate(92.225 -.314)" x1="-143" y1="207.362" x2="-129.5" y2="108.862"/>
  <linearGradient xlink:href="#b" id="e" gradientUnits="userSpaceOnUse" gradientTransform="translate(92.225 -.314)" x1="-133.5" y1="221.862" x2="-50" y2="279.362"/>
  <linearGradient xlink:href="#c" id="f" gradientUnits="userSpaceOnUse" gradientTransform="translate(92.225 -.314)" x1="-157.5" y1="222.862" x2="-247.5" y2="276.862"/>
 </defs>
 <path d="M-58.113 213.418l-104.155-62.038 125.25-51.332 105.149 58.105-126.244 55.265z" fill="url(#d)" transform="translate(178.993 -88.577)"/>
 <path d="M-51.56 213.592l123.6-54.29-17.736 124.212-116.445 66.726 10.58-136.648z" fill="url(#e)" transform="translate(178.993 -88.577)"/>
 <path d="M-59.56 347.188l-104.5-64.222.448-123.64 108.426 56.167-4.374 131.695z" fill="url(#f)" transform="translate(178.993 -88.577)"/>
 <path d="M112.721 263.43c-3.033-1.778-19.053-12.262-35.6-23.299-39.194-26.142-51.045-33.71-59.355-37.903-11.247-5.674-10.195.908-10.541-65.958C6.9 73.792 6.11 62.937 12.012 64.522c-4.616-4.394 17.09-11.165 51.069-26.293C96.274 23.452 132.95 8.553 141.002 6.575c2.186-.537 7.405 1.662 27.077 11.41 43.232 21.42 78.91 41.17 83.463 46.202 1.038 1.147 2.486 2.086 3.217 2.086 2.08 0 2.607 4.108 1.492 11.638-.563 3.803-4.617 28.575-9.008 55.05-4.39 26.475-8.285 50.844-8.654 54.154-1.306 11.719-.937 11.282-18.854 22.277-8.941 5.487-31.6 18.695-50.353 29.351-18.753 10.657-37.426 21.338-41.494 23.736-4.069 2.399-7.905 4.321-8.524 4.272-.62-.05-3.609-1.544-6.643-3.321zm4.4-25.923c.332-8.963.964-34.573 1.406-56.91.981-49.596 1.242-48.05-9.296-55.111-12.92-8.659-26.894-16.707-50.663-29.18-12.961-6.801-27.164-14.527-31.56-17.167-5.475-3.287-8.32-4.475-9.026-3.77-1.285 1.284-1.381 53.18-.166 89.455l.866 25.845 7.157 4.141c6.178 3.575 42.079 27.702 76.854 51.65 5.791 3.988 11.272 7.272 12.178 7.297 1.44.04 1.725-2.018 2.25-16.25zm-61.583-44.444l1.526-50.073-19.054-10.038 2.488-20.676 60.33 28.677-1.128 19.405-21.942-9.036c-2.787 11.188-3.317 33.664-4.914 50.806l-17.306-9.065zm113.844 35.131c43.784-25.04 58.57-34.264 59.124-36.885.255-1.204 1.193-7.153 2.085-13.22.892-6.067 4.746-29.966 8.565-53.11 6.388-38.717 7.716-48.678 6.486-48.678-1.296 0-24.778 10.553-54.7 24.584-18.476 8.664-39.01 18.244-45.628 21.29-6.619 3.045-12.596 6.054-13.282 6.687-2.054 1.894-6.715 116.722-4.927 121.382.58 1.511 1.306 1.334 6.423-1.57 3.173-1.8 19.307-11.016 35.854-20.48zm-21.914-17.197c-.353-26.579-2.429-52.814 3.515-80.652l12.478-.227 1.062 38.155 43.293-52.73 20.395-5.305-38.047 52.132 35.246 16.864-14.577 9.385-35.927-15.975-13.041 6.45-.429 25.663-13.968 6.24zm-13.465-93.95c2.912-1.307 24.247-11.396 47.413-22.42 23.165-11.023 45.052-21.312 48.638-22.864 9.482-4.103 9.872-4.666 5.314-7.666-7.021-4.62-42.679-23.592-67.697-36.02l-24.776-12.308-8.318 2.81C122.845 22.54 89.443 36.467 60.64 49.403 30.544 62.921 26.477 64.964 26.477 66.571c0 .698 6.657 4.952 14.792 9.454 26.12 14.454 82.912 43.367 85.213 43.383 1.225.008 4.61-1.054 7.521-2.361zm-15.766-16.078c-14.525-3.579-31.057-11.97-35.336-17.936-3.387-4.724-6.282-12.38-6.282-16.617 0-5.109 3.213-12.355 7.408-16.71 5.316-5.518 12.72-7.857 31.933-10.087 19.096-2.217 35.607-1.532 45.458 1.885 9.284 3.221 13.046 5.227 14.959 7.974 4.996 7.175 8.549 13.165 8.549 14.413 0 1.853-4.64 3.6-7.946 2.992a393.305 393.305 0 0 0-6.301-1.082c-3.01-.49-4.145-1.366-5.964-4.602-2.575-4.583-9.329-9.258-15.875-10.989-9.999-2.644-37.447-.434-45.9 3.697-4.777 2.334-7.345 7.449-8.03 15.995-.468 5.825-.28 6.73 1.877 9.043 2.92 3.133 11.113 7.351 20.199 10.4 5.062 1.697 7.947 2.11 11.431 1.632 8.112-1.112 9.084-3.23 4.254-9.273-4.166-5.212-5.178-8.038-3.8-10.612.967-1.806 1.773-2.001 6.332-1.53 6.46.666 20.06 5.845 23.27 8.86 2.825 2.654 3.272 8.882.814 11.34-2.802 2.802-15.242 9.73-20.095 11.19-5.658 1.703-14.084 1.71-20.955.017z"/>
</svg>
