<svg viewBox="0 0 81 56" xmlns="http://www.w3.org/2000/svg">
 <defs>
  <linearGradient x1="75.507%" y1="100%" x2="24.959%" y2="0%" id="a">
   <stop stop-color="#F00" offset="0%"/>
   <stop stop-color="#FFE0E0" offset="100%"/>
  </linearGradient>
  <linearGradient x1="-37.724%" y1="49.998%" x2="100.001%" y2="49.998%" id="b">
   <stop stop-color="#FFF" offset="0%"/>
   <stop stop-color="#FFF" stop-opacity="0" offset="100%"/>
  </linearGradient>
  <linearGradient x1="74.95%" y1="99.999%" x2="24.68%" y2="-.001%" id="c">
   <stop stop-color="#00F" offset="0%"/>
   <stop stop-color="#E0E0FF" offset="100%"/>
  </linearGradient>
  <linearGradient x1="-37.395%" y1="49.998%" y2="49.998%" id="d">
   <stop stop-color="#FFF" offset="0%"/>
   <stop stop-color="#FFF" stop-opacity="0" offset="100%"/>
  </linearGradient>
  <linearGradient x1="24.798%" y1="-.001%" x2="75.298%" y2="99.999%" id="e">
   <stop stop-color="#FFFFE0" offset="0%"/>
   <stop stop-color="#FF0" offset="100%"/>
  </linearGradient>
  <linearGradient x1="-37.724%" y1="49.998%" y2="49.998%" id="f">
   <stop stop-color="#FFF" offset="0%"/>
   <stop stop-color="#FFF" stop-opacity="0" offset="100%"/>
  </linearGradient>
 </defs>
 <g fill="none" fill-rule="evenodd">
  <g transform="translate(0 22.061)">
   <path d="M7.524 0h18.892a7.508 7.508 0 0 1 7.524 7.524v18.892a7.508 7.508 0 0 1-7.524 7.524H7.524A7.508 7.508 0 0 1 0 26.416V7.524A7.508 7.508 0 0 1 7.524 0z" fill="url(#a)"/>
   <path d="M26.653 12.729c-8.236.089-10.487 9.62-17.802 9.715-3.162.04-5.86-2.13-8.851-4.7v8.765c0 4.115 3.36 7.431 7.528 7.431H26.42c4.169 0 7.521-3.316 7.521-7.431V14.586c-2.042-1.12-4.406-1.89-7.287-1.857z" fill="#F00" opacity=".25"/>
   <rect fill="url(#b)" x="4.242" y="4.242" width="5.6" height="25.455" rx="2.8"/>
   <path d="M7.546 1.076h18.87a6.419 6.419 0 0 1 6.448 6.45v18.891a6.415 6.415 0 0 1-6.448 6.447H7.524a6.416 6.416 0 0 1-6.448-6.447V7.52c0-3.587 2.884-6.444 6.47-6.444z" stroke-opacity=".502" stroke="maroon" stroke-width="2.153"/>
  </g>
  <g transform="translate(22.061)">
   <path d="M7.524 0h18.892a7.508 7.508 0 0 1 7.524 7.524v18.892a7.508 7.508 0 0 1-7.524 7.524H7.524A7.508 7.508 0 0 1 0 26.416V7.524A7.508 7.508 0 0 1 7.524 0z" fill="url(#c)"/>
   <path d="M26.652 12.729c-8.235.089-10.486 9.62-17.8 9.715-3.163.04-5.86-2.13-8.852-4.7v8.765c0 4.115 3.36 7.431 7.528 7.431H26.42c4.169 0 7.521-3.316 7.521-7.431V14.586c-2.042-1.12-4.406-1.89-7.288-1.857z" fill="#00F" opacity=".25"/>
   <rect fill="url(#d)" x="4.242" y="4.242" width="5.6" height="25.455" rx="2.8"/>
   <path d="M7.546 1.076h18.87a6.419 6.419 0 0 1 6.448 6.45v18.891a6.415 6.415 0 0 1-6.448 6.447H7.524a6.416 6.416 0 0 1-6.448-6.447V7.52c0-3.587 2.884-6.444 6.47-6.444z" stroke-opacity=".502" stroke="navy" stroke-width="2.153"/>
  </g>
  <g transform="translate(46.668 16.122)">
   <path d="M7.524 0h18.892a7.508 7.508 0 0 1 7.524 7.524v18.892a7.508 7.508 0 0 1-7.524 7.524H7.524A7.508 7.508 0 0 1 0 26.416V7.524A7.508 7.508 0 0 1 7.524 0z" fill="url(#e)"/>
   <path d="M26.652 12.729c-8.235.089-10.486 9.62-17.8 9.715-3.163.04-5.86-2.13-8.852-4.7v8.765c0 4.115 3.36 7.431 7.528 7.431H26.42c4.169 0 7.521-3.316 7.521-7.431V14.586c-2.042-1.12-4.406-1.89-7.288-1.857z" fill="#C0C000" opacity=".25"/>
   <rect fill="url(#f)" x="4.242" y="4.242" width="5.6" height="25.455" rx="2.8"/>
   <path d="M7.546 1.076h18.87a6.419 6.419 0 0 1 6.448 6.45v18.891a6.415 6.415 0 0 1-6.448 6.447H7.524a6.416 6.416 0 0 1-6.448-6.447V7.52c0-3.587 2.884-6.444 6.47-6.444z" stroke-opacity=".502" stroke="olive" stroke-width="2.153"/>
  </g>
 </g>
</svg>
