<!--
Font Awesome Pro 5.0.1 by @fontawesome - https://fontawesome.com
License - https://fontawesome.com/license (Commercial License)
-->
<svg xmlns="http://www.w3.org/2000/svg" style="display: none;"><symbol id="creative-commons" viewBox="0 0 512 512"><title id="creative-commons-title">Creative Commons</title><path d="M255.547 8C392.884 8 504 114.439 504 256.004 504 405.979 381.106 504 255.562 504 122.319 504 8 394.557 8 256.004 8 124.825 113.486 8 255.547 8zm.899 44.734c-120.341 0-203.727 100.568-203.727 203.278 0 106.515 88.984 202.394 203.727 202.394 101.528 0 202.821-79.442 202.821-202.387-.001-114.773-91.773-203.285-202.821-203.285zm-3.108 162.093l-33.225 17.275c-5.395-11.203-15.25-19.926-27.459-19.926-22.134 0-33.217 14.609-33.217 43.842 0 23.842 9.446 43.842 33.217 43.842 14.469 0 24.653-7.091 30.566-21.259l30.551 15.5c-12.813 23.899-36.887 38.975-65.101 38.975-43.162 0-73.959-27.272-73.959-77.052 0-49.541 32.706-77.059 72.634-77.059 30.714-.013 52.701 11.946 65.993 35.862zm143.044 0l-32.775 17.275c-5.517-11.482-15.324-19.926-27.9-19.926-22.142 0-33.225 14.609-33.225 43.842 0 23.906 9.502 43.842 33.225 43.842 14.454 0 24.645-7.091 30.543-21.259l31 15.5c-13.363 23.869-37.451 38.975-65.086 38.975-43.439 0-73.959-26.988-73.959-77.052 0-49.523 32.698-77.059 72.626-77.059 30.706-.013 52.569 11.946 65.551 35.862z"></path></symbol><symbol id="css3-alt" viewBox="0 0 384 512"><title id="css3-alt-title">Alternate CSS3 Logo</title><path d="M0 32l34.9 395.8L192 480l157.1-52.2L384 32H0zm313.1 80l-4.8 47.3L193 208.6l-.3.1h111.5l-12.8 146.6-98.2 28.7-98.8-29.2-6.4-73.9h48.9l3.2 38.3 52.6 13.3 54.7-15.4 3.7-61.6-166.3-.5v-.1l-.2.1-3.6-46.3L193.1 162l6.5-2.7H76.7L70.9 112h242.2z"></path></symbol><symbol id="html5" viewBox="0 0 384 512"><title id="html5-title">HTML 5 Logo</title><path d="M0 32l34.9 395.8L191.5 480l157.6-52.2L384 32H0zm308.2 127.9H124.4l4.1 49.4h175.6l-13.6 148.4-97.9 27v.3h-1.1l-98.7-27.3-6-75.8h47.7L138 320l53.5 14.5 53.7-14.5 6-62.2H84.3L71.5 112.2h241.1l-4.4 47.7z"></path></symbol></svg>
