<!--
Font Awesome Pro 5.0.1 by @fontawesome - https://fontawesome.com
License - https://fontawesome.com/license (Commercial License)
-->
<svg xmlns="http://www.w3.org/2000/svg" style="display: none;"><symbol id="book" viewBox="0 0 448 512"><title id="book-title">book</title><path d="M356 160H188c-6.6 0-12-5.4-12-12v-8c0-6.6 5.4-12 12-12h168c6.6 0 12 5.4 12 12v8c0 6.6-5.4 12-12 12zm12 52v-8c0-6.6-5.4-12-12-12H188c-6.6 0-12 5.4-12 12v8c0 6.6 5.4 12 12 12h168c6.6 0 12-5.4 12-12zm64.7 268h3.3c6.6 0 12 5.4 12 12v8c0 6.6-5.4 12-12 12H80c-44.2 0-80-35.8-80-80V80C0 35.8 35.8 0 80 0h344c13.3 0 24 10.7 24 24v368c0 10-6.2 18.6-14.9 22.2-3.6 16.1-4.4 45.6-.4 65.8zM128 384h288V32H128v352zm-96 16c13.4-10 30-16 48-16h16V32H80c-26.5 0-48 21.5-48 48v320zm372.3 80c-3.1-20.4-2.9-45.2 0-64H80c-64 0-64 64 0 64h324.3z"></path></symbol><symbol id="cloud-download" viewBox="0 0 640 512"><title id="cloud-download-title">Cloud Download</title><path d="M272 64c60.28 0 111.899 37.044 133.36 89.604C419.97 137.862 440.829 128 464 128c44.183 0 80 35.817 80 80 0 18.55-6.331 35.612-16.927 49.181C572.931 264.413 608 304.109 608 352c0 53.019-42.981 96-96 96H144c-61.856 0-112-50.144-112-112 0-56.77 42.24-103.669 97.004-110.998A145.47 145.47 0 0 1 128 208c0-79.529 64.471-144 144-144m0-32c-94.444 0-171.749 74.49-175.83 168.157C39.171 220.236 0 274.272 0 336c0 79.583 64.404 144 144 144h368c70.74 0 128-57.249 128-128 0-46.976-25.815-90.781-68.262-113.208C574.558 228.898 576 218.571 576 208c0-61.898-50.092-112-112-112-16.734 0-32.898 3.631-47.981 10.785C384.386 61.786 331.688 32 272 32zm16 140v150.745l-68.201-68.2c-4.686-4.686-12.284-4.686-16.97 0l-5.657 5.657c-4.687 4.686-4.687 12.284 0 16.971l98.343 98.343c4.686 4.686 12.284 4.686 16.971 0l98.343-98.343c4.686-4.686 4.686-12.285 0-16.971l-5.657-5.657c-4.686-4.686-12.284-4.686-16.97 0L320 322.745V172c0-6.627-5.373-12-12-12h-8c-6.627 0-12 5.373-12 12z"></path></symbol><symbol id="cog" viewBox="0 0 512 512"><title id="cog-title">cog</title><path d="M482.696 299.276l-32.61-18.827a195.168 195.168 0 0 0 0-48.899l32.61-18.827c9.576-5.528 14.195-16.902 11.046-27.501-11.214-37.749-31.175-71.728-57.535-99.595-7.634-8.07-19.817-9.836-29.437-4.282l-32.562 18.798a194.125 194.125 0 0 0-42.339-24.48V38.049c0-11.13-7.652-20.804-18.484-23.367-37.644-8.909-77.118-8.91-114.77 0-10.831 2.563-18.484 12.236-18.484 23.367v37.614a194.101 194.101 0 0 0-42.339 24.48L105.23 81.345c-9.621-5.554-21.804-3.788-29.437 4.282-26.36 27.867-46.321 61.847-57.535 99.595-3.149 10.599 1.47 21.972 11.046 27.501l32.61 18.827a195.168 195.168 0 0 0 0 48.899l-32.61 18.827c-9.576 5.528-14.195 16.902-11.046 27.501 11.214 37.748 31.175 71.728 57.535 99.595 7.634 8.07 19.817 9.836 29.437 4.283l32.562-18.798a194.08 194.08 0 0 0 42.339 24.479v37.614c0 11.13 7.652 20.804 18.484 23.367 37.645 8.909 77.118 8.91 114.77 0 10.831-2.563 18.484-12.236 18.484-23.367v-37.614a194.138 194.138 0 0 0 42.339-24.479l32.562 18.798c9.62 5.554 21.803 3.788 29.437-4.283 26.36-27.867 46.321-61.847 57.535-99.595 3.149-10.599-1.47-21.972-11.046-27.501zm-65.479 100.461l-46.309-26.74c-26.988 23.071-36.559 28.876-71.039 41.059v53.479a217.145 217.145 0 0 1-87.738 0v-53.479c-33.621-11.879-43.355-17.395-71.039-41.059l-46.309 26.74c-19.71-22.09-34.689-47.989-43.929-75.958l46.329-26.74c-6.535-35.417-6.538-46.644 0-82.079l-46.329-26.74c9.24-27.969 24.22-53.869 43.929-75.969l46.309 26.76c27.377-23.434 37.063-29.065 71.039-41.069V44.464a216.79 216.79 0 0 1 87.738 0v53.479c33.978 12.005 43.665 17.637 71.039 41.069l46.309-26.76c19.709 22.099 34.689 47.999 43.929 75.969l-46.329 26.74c6.536 35.426 6.538 46.644 0 82.079l46.329 26.74c-9.24 27.968-24.219 53.868-43.929 75.957zM256 160c-52.935 0-96 43.065-96 96s43.065 96 96 96 96-43.065 96-96-43.065-96-96-96zm0 160c-35.29 0-64-28.71-64-64s28.71-64 64-64 64 28.71 64 64-28.71 64-64 64z"></path></symbol><symbol id="cogs" viewBox="0 0 640 512"><title id="cogs-title">cogs</title><path d="M538.6 196.4l-2.5-3.9c-4.1.3-8.1.3-12.2 0l-2.5 4c-5.8 9.2-17.1 13.4-27.5 10.1-13.8-4.3-23-8.8-34.3-18.1-9-7.4-11.2-20.3-5.4-30.4l2.5-4.3c-2.3-3.4-4.3-6.9-6.1-10.6h-9.1c-11.6 0-21.4-8.2-23.6-19.6-2.6-13.7-2.7-24.2.1-38.5 2.1-11.3 12.1-19.5 23.6-19.5h9c1.8-3.7 3.8-7.2 6.1-10.6l-2.6-4.5c-5.8-10-3.6-22.7 5.2-30.3 10.6-9.1 19.7-14.3 33.5-19 10.8-3.7 22.7.7 28.5 10.6l2.6 4.4c4.1-.3 8.1-.3 12.2 0l2.6-4.4c5.8-9.9 17.7-14.3 28.6-10.5 13.3 4.5 22.3 9.6 33.5 19.1 8.8 7.5 10.9 20.2 5.1 30.2l-2.6 4.4c2.3 3.4 4.3 6.9 6.1 10.6h5.1c11.6 0 21.4 8.2 23.6 19.6 2.6 13.7 2.7 24.2-.1 38.5-2.1 11.3-12.1 19.5-23.6 19.5h-5c-1.8 3.7-3.8 7.2-6.1 10.6l2.5 4.3c5.9 10.2 3.5 23.1-5.5 30.5-10.7 8.8-19.9 13.4-34 17.9-10.5 3.3-21.9-.8-27.7-10.1zm12.2-34.5l10.6 18.3c6.7-2.8 12.9-6.4 18.7-10.8l-10.6-18.3 6.4-7.5c4.8-5.7 8.6-12.1 11-19.1l3.3-9.3h21.1c.9-7.1.9-14.4 0-21.5h-21.1l-3.3-9.3c-2.5-7-6.2-13.4-11-19.1l-6.4-7.5L580 39.4c-5.7-4.4-12-8-18.7-10.8l-10.6 18.3-9.7-1.8c-7.3-1.4-14.8-1.4-22.1 0l-9.7 1.8-10.6-18.3C492 31.3 485.7 35 480 39.4l10.6 18.3-6.4 7.5c-4.8 5.7-8.6 12.1-11 19.1l-3.3 9.3h-21.1c-.9 7.1-.9 14.4 0 21.5h21.1l3.3 9.3c2.5 7 6.2 13.4 11 19.1l6.4 7.5-10.6 18.4c5.7 4.4 12 8 18.7 10.8l10.6-18.3 9.7 1.8c7.3 1.4 14.8 1.4 22.1 0l9.7-1.8zM145.3 454.4v-31.6c-12.9-5.5-25.1-12.6-36.4-21.1l-27.5 15.9c-9.8 5.6-22.1 3.7-29.7-4.6-24.2-26.3-38.5-49.5-50.6-88.1-3.4-10.7 1.1-22.3 10.8-28L39.2 281c-1.7-14-1.7-28.1 0-42.1l-27.3-15.8c-9.7-5.6-14.2-17.3-10.8-28 12.1-38.4 26.2-61.6 50.6-88.1 7.6-8.3 20-10.2 29.7-4.6l27.4 15.9c11.3-8.5 23.5-15.5 36.4-21.1V65.6c0-11.3 7.8-21 18.8-23.4 34.7-7.8 62-8.7 101.7 0 11 2.4 18.9 12.2 18.9 23.4v31.6c12.9 5.5 25.1 12.6 36.4 21l27.4-15.8c9.8-5.6 22.2-3.7 29.8 4.6 26.9 29.6 41.5 55.9 52.1 88.5 3.4 10.5-.8 21.9-10.2 27.7l-25 15.8c1.7 14 1.7 28.1 0 42.1l28.1 17.5c8.6 5.4 13 15.6 10.8 25.5-6.9 31.3-33 64.6-55.9 89.2-7.6 8.2-19.9 10-29.6 4.4L321 401.8c-11.3 8.5-23.5 15.5-36.4 21.1v31.6c0 11.2-7.8 21-18.8 23.4-37.5 8.3-64.9 8.2-101.9 0-10.8-2.5-18.6-12.3-18.6-23.5zm32-6.2c24.8 5 50.5 5 75.3 0v-47.7l10.7-3.8c16.8-5.9 32.3-14.9 45.9-26.5l8.6-7.4 41.4 23.9c16.8-19.1 34-41.3 42.1-65.2l-41.4-23.9 2.1-11.1c3.2-17.6 3.2-35.5 0-53.1l-2.1-11.1 41.4-23.9c-8.1-23.9-25.3-46.2-42.1-65.2l-41.4 23.9-8.6-7.4c-13.6-11.7-29-20.6-45.9-26.5l-10.7-3.8V71.8c-24.8-5-50.5-5-75.3 0v47.7l-10.7 3.8c-16.8 5.9-32.3 14.9-45.9 26.5l-8.6 7.4-41.4-23.9A192.19 192.19 0 0 0 33 198.5l41.4 23.9-2.1 11.1c-3.2 17.6-3.2 35.5 0 53.1l2.1 11.1L33 321.6c8.1 23.9 20.9 46.2 37.7 65.2l41.4-23.9 8.6 7.4c13.6 11.7 29 20.6 45.9 26.5l10.7 3.8v47.6zm38.4-105.3c-45.7 0-82.9-37.2-82.9-82.9s37.2-82.9 82.9-82.9 82.9 37.2 82.9 82.9-37.2 82.9-82.9 82.9zm0-133.8c-28 0-50.9 22.8-50.9 50.9s22.8 50.9 50.9 50.9c28 0 50.9-22.8 50.9-50.9s-22.8-50.9-50.9-50.9zm322.9 291.7l-2.5-3.9c-4.1.3-8.1.3-12.2 0l-2.5 4c-5.8 9.2-17.1 13.4-27.5 10.1-13.8-4.3-23-8.8-34.3-18.1-9-7.4-11.2-20.3-5.4-30.4l2.5-4.3c-2.3-3.4-4.3-6.9-6.1-10.6h-9.1c-11.6 0-21.4-8.2-23.6-19.6-2.6-13.7-2.7-24.2.1-38.5 2.1-11.3 12.1-19.5 23.6-19.5h9c1.8-3.7 3.8-7.2 6.1-10.6l-2.6-4.5c-5.8-10-3.6-22.7 5.2-30.3 10.6-9.1 19.7-14.3 33.5-19 10.8-3.7 22.7.7 28.5 10.6l2.6 4.4c4.1-.3 8.1-.3 12.2 0l2.6-4.4c5.8-9.9 17.7-14.3 28.6-10.5 13.3 4.5 22.3 9.6 33.5 19.1 8.8 7.5 10.9 20.2 5.1 30.2l-2.6 4.4c2.3 3.4 4.3 6.9 6.1 10.6h5.1c11.6 0 21.4 8.2 23.6 19.6 2.6 13.7 2.7 24.2-.1 38.5-2.1 11.3-12.1 19.5-23.6 19.5h-5c-1.8 3.7-3.8 7.2-6.1 10.6l2.5 4.3c5.9 10.2 3.5 23.1-5.5 30.5-10.7 8.8-19.9 13.4-34 17.9-10.5 3.2-21.9-.9-27.7-10.1zm12.2-34.6l10.6 18.3c6.7-2.8 12.9-6.4 18.7-10.8l-10.6-18.3 6.4-7.5c4.8-5.7 8.6-12.1 11-19.1l3.3-9.3h21.1c.9-7.1.9-14.4 0-21.5h-21.1l-3.3-9.3c-2.5-7-6.2-13.4-11-19.1l-6.4-7.5 10.6-18.3c-5.7-4.4-12-8-18.7-10.8l-10.6 18.3-9.7-1.8c-7.3-1.4-14.8-1.4-22.1 0l-9.7 1.8-10.6-18.3c-6.7 2.8-12.9 6.4-18.7 10.8l10.6 18.3-6.4 7.5c-4.8 5.7-8.6 12.1-11 19.1l-3.3 9.3h-21.1c-.9 7.1-.9 14.4 0 21.5h21.1l3.3 9.3c2.5 7 6.2 13.4 11 19.1l6.4 7.5-10.6 18.3c5.7 4.4 12 8 18.7 10.8l10.6-18.3 9.7 1.8c7.3 1.4 14.8 1.4 22.1 0l9.7-1.8zM560 408c0-17.7-14.3-32-32-32s-32 14.3-32 32 14.3 32 32 32 32-14.3 32-32zm0-304.3c0-17.7-14.3-32-32-32s-32 14.3-32 32 14.3 32 32 32 32-14.4 32-32z"></path></symbol><symbol id="comment" viewBox="0 0 576 512"><title id="comment-title">comment</title><path d="M288 32C129 32 0 125.1 0 240c0 50.2 24.6 96.3 65.6 132.2-10.4 36.3-29.7 45.9-52.3 62.1-27.6 19.7-7.9 47.6 17.4 45.6 58.7-4.7 113.3-19.9 159.2-44.2 30.6 8 63.6 12.3 98 12.3 159.1 0 288-93 288-208C576 125.1 447.1 32 288 32zm0 384c-35.4 0-69.7-4.9-102-14.7-40.9 24-90 46.7-154 54.7 48-32 62.5-56.9 69.1-96.3C61.6 330.6 32 289.2 32 240c0-96.5 115.7-176 256-176 141.5 0 256 80.2 256 176 0 96.5-115.6 176-256 176z"></path></symbol><symbol id="cubes" viewBox="0 0 512 512"><title id="cubes-title">Cubes</title><path d="M388 219V107.9c0-15-9.3-28.4-23.4-33.7l-96-36c-8.1-3.1-17.1-3.1-25.3 0l-96 36c-14.1 5.3-23.4 18.7-23.4 33.7V219L23.4 256.7C9.3 262 0 275.4 0 290.4v101.3c0 13.6 7.7 26.1 19.9 32.2l96 48c10.1 5.1 22.1 5.1 32.2 0L256 418l107.9 54c10.1 5.1 22.1 5.1 32.2 0l96-48c12.2-6.1 19.9-18.6 19.9-32.2V290.4c0-15-9.3-28.4-23.4-33.7L388 219zm-123.8 38.4V159l107.2-46.5v106.7L317 239.6l-52.8 17.8zm-123.7-163L256 51l115.5 43.3v.2l-115.5 50-115.5-50v-.1zM247.8 159v98.4L195 239.6l-54.5-20.4V112.5L247.8 159zm-124 298.4L16.5 403.8V295.1l107.2 46.5v115.8zm123.7-53.6l-107.2 53.6V341.6l107.2-46.5v108.7zm0-126.7l-115.5 50-115.5-50v-.2L131 234l107.6 39.6 8.9 3.3v.2zm124.3 180.3l-107.2-53.6V295.1l107.2 46.5v115.8zm123.7-53.6l-107.2 53.6V341.6l107.2-46.5v108.7zm0-126.7l-115.5 50L264.5 277v-.2l8.9-3.3L381 234l114.5 42.9v.2z"></path></symbol><symbol id="database" viewBox="0 0 448 512"><title id="database-title">Database</title><path d="M224 32c106 0 192 28.75 192 64v32c0 35.25-86 64-192 64S32 163.25 32 128V96c0-35.25 86-64 192-64m192 149.5V224c0 35.25-86 64-192 64S32 259.25 32 224v-42.5c41.25 29 116.75 42.5 192 42.5s150.749-13.5 192-42.5m0 96V320c0 35.25-86 64-192 64S32 355.25 32 320v-42.5c41.25 29 116.75 42.5 192 42.5s150.749-13.5 192-42.5m0 96V416c0 35.25-86 64-192 64S32 451.25 32 416v-42.5c41.25 29 116.75 42.5 192 42.5s150.749-13.5 192-42.5M224 0C145.858 0 0 18.801 0 96v320c0 77.338 146.096 96 224 96 78.142 0 224-18.801 224-96V96c0-77.338-146.096-96-224-96z"></path></symbol><symbol id="exclamation-circle" viewBox="0 0 512 512"><title id="exclamation-circle-title">Exclamation Circle</title><path d="M256 40c118.621 0 216 96.075 216 216 0 119.291-96.61 216-216 216-119.244 0-216-96.562-216-216 0-119.203 96.602-216 216-216m0-32C119.043 8 8 119.083 8 256c0 136.997 111.043 248 248 248s248-111.003 248-248C504 119.083 392.957 8 256 8zm-11.49 120h22.979c6.823 0 12.274 5.682 11.99 12.5l-7 168c-.268 6.428-5.556 11.5-11.99 11.5h-8.979c-6.433 0-11.722-5.073-11.99-11.5l-7-168c-.283-6.818 5.167-12.5 11.99-12.5zM256 340c-15.464 0-28 12.536-28 28s12.536 28 28 28 28-12.536 28-28-12.536-28-28-28z"></path></symbol><symbol id="globe" viewBox="0 0 512 512"><title id="globe-title">Globe</title><path d="M504 256C504 118.815 392.705 8 256 8 119.371 8 8 118.74 8 256c0 136.938 111.041 248 248 248 136.886 0 248-110.987 248-248zm-41.625 64h-99.434c6.872-42.895 6.6-86.714.055-128h99.38c12.841 41.399 12.843 86.598-.001 128zM256.001 470.391c-30.732-27.728-54.128-69.513-67.459-118.391h134.917c-13.332 48.887-36.73 90.675-67.458 118.391zM181.442 320c-7.171-41.387-7.349-85.537.025-128h149.067c7.371 42.453 7.197 86.6.025 128H181.442zM256 41.617c33.557 30.295 55.554 74.948 67.418 118.383H188.582c11.922-43.649 33.98-88.195 67.418-118.383zM449.544 160h-93.009c-10.928-44.152-29.361-83.705-53.893-114.956C366.825 59.165 420.744 101.964 449.544 160zM209.357 45.044C184.826 76.293 166.393 115.847 155.464 160H62.456C91.25 101.975 145.162 59.169 209.357 45.044zM49.625 192h99.38c-6.544 41.28-6.818 85.1.055 128H49.625c-12.842-41.399-12.844-86.598 0-128zm12.831 160h93.122c11.002 44.176 29.481 83.824 53.833 114.968C144.875 452.786 91.108 409.738 62.456 352zm240.139 114.966c24.347-31.138 42.825-70.787 53.827-114.966h93.121c-28.695 57.827-82.504 100.802-146.948 114.966z"></path></symbol><symbol id="language" viewBox="0 0 640 512"><title id="language-title">Language</title><path d="M616 96H24c-13.255 0-24 10.745-24 24v272c0 13.255 10.745 24 24 24h592c13.255 0 24-10.745 24-24V120c0-13.255-10.745-24-24-24zM304 384H32V128h272v256zm304 0H336V128h272v256zM91.088 352h10.34a12 12 0 0 0 11.397-8.243l13.508-40.973h67.335l13.508 40.973A12.001 12.001 0 0 0 218.573 352h10.339c8.276 0 14.067-8.18 11.319-15.985l-59.155-168A12 12 0 0 0 169.757 160h-19.513a12 12 0 0 0-11.319 8.014l-59.155 168C77.021 343.82 82.812 352 91.088 352zm60.663-128.991c3.787-10.818 8.113-29.747 8.113-29.747h.541s4.057 18.929 7.572 29.747l17.036 51.38h-50.298l17.036-51.38zM384 212v-8c0-6.627 5.373-12 12-12h68v-20c0-6.627 5.373-12 12-12h8c6.627 0 12 5.373 12 12v20h68c6.627 0 12 5.373 12 12v8c0 6.627-5.373 12-12 12h-15.699c-7.505 24.802-23.432 50.942-44.896 74.842 10.013 9.083 20.475 17.265 30.924 24.086 5.312 3.467 6.987 10.475 3.84 15.982l-3.987 6.976c-3.429 6.001-11.188 7.844-16.993 4.091-13.145-8.5-25.396-18.237-36.56-28.5-11.744 10.454-24.506 20.146-37.992 28.68-5.761 3.646-13.409 1.698-16.791-4.221l-3.972-6.95c-3.197-5.594-1.379-12.672 4.058-16.129 11.382-7.237 22.22-15.428 32.24-24.227-10.026-11.272-18.671-22.562-25.687-33.033-3.833-5.721-2.11-13.48 3.803-17.01l6.867-4.099c5.469-3.264 12.55-1.701 16.092 3.592 6.379 9.531 13.719 18.947 21.677 27.953 15.017-16.935 26.721-34.905 33.549-52.033H396c-6.627 0-12-5.373-12-12z"></path></symbol><symbol id="laptop" viewBox="0 0 640 512"><title id="laptop-title">Laptop</title><path d="M112 352h416c26.5 0 48-21.5 48-48V48c0-26.5-21.5-48-48-48H112C85.5 0 64 21.5 64 48v256c0 26.5 21.5 48 48 48zM96 48c0-8.8 7.2-16 16-16h416c8.8 0 16 7.2 16 16v256c0 8.8-7.2 16-16 16H112c-8.8 0-16-7.2-16-16V48zm532 336H366c-3.3 0-6 2.7-6 6v10c0 13.3-10.7 24-24 24h-32c-13.3 0-24-10.7-24-24v-10c0-3.3-2.7-6-6-6H12c-6.6 0-12 5.4-12 12v68c0 26.5 21.5 48 48 48h544c26.5 0 48-21.5 48-48v-68c0-6.6-5.4-12-12-12zm-20 80c0 8.8-7.2 16-16 16H48c-8.8 0-16-7.2-16-16v-48h224c0 17.7 14.3 32 32 32h64c17.7 0 32-14.3 32-32h224v48z"></path></symbol><symbol id="lightbulb" viewBox="0 0 384 512"><title id="lightbulb-title">Lightbulb</title><path d="M192 80c0 8.837-7.164 16-16 16-35.29 0-64 28.71-64 64 0 8.837-7.164 16-16 16s-16-7.163-16-16c0-52.935 43.065-96 96-96 8.836 0 16 7.163 16 16zm176 96c0 101.731-51.697 91.541-90.516 192.674a23.722 23.722 0 0 1-5.484 8.369V464h-.018a23.99 23.99 0 0 1-5.241 14.574l-19.535 24.419A24 24 0 0 1 228.465 512h-72.93a24 24 0 0 1-18.741-9.007l-19.535-24.419A23.983 23.983 0 0 1 112.018 464H112v-86.997a24.153 24.153 0 0 1-5.54-8.478c-38.977-101.401-90.897-90.757-90.457-193.822C16.415 78.01 95.306 0 192 0c97.195 0 176 78.803 176 176zM240 448h-96v12.775L159.38 480h65.24L240 460.775V448zm0-64h-96v32h96v-32zm96-208c0-79.59-64.424-144-144-144-79.59 0-144 64.423-144 144 0 87.475 44.144 70.908 86.347 176h115.306C291.779 247.101 336 263.222 336 176z"></path></symbol><symbol id="list" viewBox="0 0 512 512"><title id="list-title">list</title><path d="M506 114H134a6 6 0 0 1-6-6V84a6 6 0 0 1 6-6h372a6 6 0 0 1 6 6v24a6 6 0 0 1-6 6zm6 154v-24a6 6 0 0 0-6-6H134a6 6 0 0 0-6 6v24a6 6 0 0 0 6 6h372a6 6 0 0 0 6-6zm0 160v-24a6 6 0 0 0-6-6H134a6 6 0 0 0-6 6v24a6 6 0 0 0 6 6h372a6 6 0 0 0 6-6zM84 120V72c0-6.627-5.373-12-12-12H24c-6.627 0-12 5.373-12 12v48c0 6.627 5.373 12 12 12h48c6.627 0 12-5.373 12-12zm0 160v-48c0-6.627-5.373-12-12-12H24c-6.627 0-12 5.373-12 12v48c0 6.627 5.373 12 12 12h48c6.627 0 12-5.373 12-12zm0 160v-48c0-6.627-5.373-12-12-12H24c-6.627 0-12 5.373-12 12v48c0 6.627 5.373 12 12 12h48c6.627 0 12-5.373 12-12z"></path></symbol><symbol id="mobile" viewBox="0 0 320 512"><title id="mobile-title">Mobile Phone</title><path d="M192 416c0 17.7-14.3 32-32 32s-32-14.3-32-32 14.3-32 32-32 32 14.3 32 32zM320 48v416c0 26.5-21.5 48-48 48H48c-26.5 0-48-21.5-48-48V48C0 21.5 21.5 0 48 0h224c26.5 0 48 21.5 48 48zm-32 0c0-8.8-7.2-16-16-16H48c-8.8 0-16 7.2-16 16v416c0 8.8 7.2 16 16 16h224c8.8 0 16-7.2 16-16V48z"></path></symbol><symbol id="newspaper" viewBox="0 0 576 512"><title id="newspaper-title">Newspaper</title><path d="M552 64H88c-13.234 0-24 10.767-24 24v8H24c-13.255 0-24 10.745-24 24v280c0 26.51 21.49 48 48 48h504c13.233 0 24-10.767 24-24V88c0-13.233-10.767-24-24-24zM32 400V128h32v272c0 8.822-7.178 16-16 16s-16-7.178-16-16zm512 16H93.258A47.897 47.897 0 0 0 96 400V96h448v320zm-404-96h168c6.627 0 12-5.373 12-12V140c0-6.627-5.373-12-12-12H140c-6.627 0-12 5.373-12 12v168c0 6.627 5.373 12 12 12zm20-160h128v128H160V160zm-32 212v-8c0-6.627 5.373-12 12-12h168c6.627 0 12 5.373 12 12v8c0 6.627-5.373 12-12 12H140c-6.627 0-12-5.373-12-12zm224 0v-8c0-6.627 5.373-12 12-12h136c6.627 0 12 5.373 12 12v8c0 6.627-5.373 12-12 12H364c-6.627 0-12-5.373-12-12zm0-64v-8c0-6.627 5.373-12 12-12h136c6.627 0 12 5.373 12 12v8c0 6.627-5.373 12-12 12H364c-6.627 0-12-5.373-12-12zm0-128v-8c0-6.627 5.373-12 12-12h136c6.627 0 12 5.373 12 12v8c0 6.627-5.373 12-12 12H364c-6.627 0-12-5.373-12-12zm0 64v-8c0-6.627 5.373-12 12-12h136c6.627 0 12 5.373 12 12v8c0 6.627-5.373 12-12 12H364c-6.627 0-12-5.373-12-12z"></path></symbol><symbol id="paint-brush" viewBox="0 0 512 512"><title id="paint-brush-title">Paint Brush</title><path d="M446 0c-17.1 0-34.2 7.1-48 19.9-115 106-167.2 148.9-191.9 179.3-18.5 22.8-22 39.5-22 62.2 0 3.7.2 7.3.6 10.9-38.4 2-87.7 15.3-113.5 84.1-19.8-2.8-43.2-22.1-57.6-35.7-5.2-4.9-13.6-1.3-13.6 5.8v11.2c0 48 11.7 89.6 33.8 120.2C59.5 493.3 97.9 512 145.1 512c42 0 77.6-12.6 102.9-36.5 26.2-24.7 40-60.1 40-102.4 0-1.7 0-3.4-.1-5.1 35.9 0 62.7-15.4 92.5-52.9 31.1-39.2 67.8-105.8 117-200.5l.1-.2c7.2-14.4 14.5-31.7 14.5-51 0-35-29.6-63.4-66-63.4zM145.1 480c-37 0-65.7-13.8-85.3-41-12.8-17.7-21.5-41.1-25.4-67.9 16.8 11.9 27.9 17.6 36.9 17.6 13.2 0 24.8-8 29.5-20.5v-.1c20.3-54.8 56.1-63.5 92-64.2 11.6 26.8 34.3 48.9 62.4 58.5.5 3.4.7 6.9.7 10.5C256 440 214.5 480 145.1 480zM468.9 99.9c-46.9 90.4-84.2 158.2-113.6 195.2-27 34-45.8 40.8-67.5 40.8-39 0-71.8-34.2-71.8-74.6 0-42.1 11.2-40.6 203.7-218C427.5 36.2 437.1 32 446 32c16.4 0 34 12 34 31.3 0 12.7-5.6 25.6-11.1 36.6z"></path></symbol><symbol id="pencil" viewBox="0 0 512 512"><title id="pencil-title">pencil</title><path d="M493.255 56.236l-37.49-37.49c-24.993-24.993-65.515-24.994-90.51 0L12.838 371.162.151 485.346c-1.698 15.286 11.22 28.203 26.504 26.504l114.184-12.687 352.417-352.417c24.992-24.994 24.992-65.517-.001-90.51zm-95.196 140.45L174 420.745V386h-48v-48H91.255l224.059-224.059 82.745 82.745zM126.147 468.598l-58.995 6.555-30.305-30.305 6.555-58.995L63.255 366H98v48h48v34.745l-19.853 19.853zm344.48-344.48l-49.941 49.941-82.745-82.745 49.941-49.941c12.505-12.505 32.748-12.507 45.255 0l37.49 37.49c12.506 12.506 12.507 32.747 0 45.255z"></path></symbol><symbol id="user-circle" viewBox="0 0 512 512"><title id="user-circle-title">User Circle</title><path d="M256 8C119.033 8 8 119.033 8 256s111.033 248 248 248 248-111.033 248-248S392.967 8 256 8zm0 32c118.663 0 216 96.055 216 216 0 45.887-14.373 88.578-38.928 123.692-11.413-36.912-44.537-64.38-84.385-67.413C371.483 288.374 384 257.149 384 224c0-70.741-57.249-128-128-128-70.74 0-128 57.249-128 128 0 33.149 12.517 64.374 35.313 88.279-39.861 3.033-72.994 30.519-84.396 67.45C54.424 344.761 40 302.154 40 256c0-118.663 96.055-216 216-216zm-96 184c0-53.019 42.981-96 96-96s96 42.981 96 96-42.981 96-96 96-96-42.981-96-96zm-53.333 188.058c0-43.808 31.782-68.058 64-68.058h40.622c28.662 10.663 60.712 10.68 89.422 0h40.622c32.717 0 64 24.665 64 68.073-83.416 79.913-215.066 79.926-298.666-.015z"></path></symbol><symbol id="wrench" viewBox="0 0 512 512"><title id="wrench-title">Wrench</title><path d="M120 416c0 13.255-10.745 24-24 24s-24-10.745-24-24 10.745-24 24-24 24 10.745 24 24zm370.571-175.976C462.837 287.965 411.014 320 352 320c-14.137 0-28.001-1.828-41.435-5.428L136.568 488.551c-31.267 31.269-81.876 31.263-113.137 0-31.191-31.192-31.191-81.945 0-113.137l173.997-173.979C193.828 188.001 192 174.137 192 160 192 71.614 263.647 0 352 0c58.995 0 110.827 32.019 138.571 79.976C502.908 101.303 487.468 128 462.872 128H353.736l-20 32 20 32h109.136c24.638 0 40.015 26.733 27.699 48.024zm-212.572 61.86c-28.995-15.12-52.791-38.943-67.883-67.883L46.059 398.059c-18.714 18.716-18.714 49.167.001 67.883 18.761 18.761 49.123 18.757 67.882 0l164.057-164.058zM462.872 224H336l-40-64 40-64h126.872C440.74 57.742 399.377 32 352 32c-70.692 0-128 57.308-128 128s57.308 128 128 128c47.377 0 88.74-25.742 110.872-64z"></path></symbol></svg>
