<!--
Font Awesome Pro 5.9.0 by @fontawesome - https://fontawesome.com
License - https://fontawesome.com/license (Commercial License)
-->
<svg xmlns="http://www.w3.org/2000/svg" style="display: none;"><symbol id="book" viewBox="0 0 448 512"><path d="M356 160H188c-6.6 0-12-5.4-12-12v-8c0-6.6 5.4-12 12-12h168c6.6 0 12 5.4 12 12v8c0 6.6-5.4 12-12 12zm12 52v-8c0-6.6-5.4-12-12-12H188c-6.6 0-12 5.4-12 12v8c0 6.6 5.4 12 12 12h168c6.6 0 12-5.4 12-12zm64.7 268h3.3c6.6 0 12 5.4 12 12v8c0 6.6-5.4 12-12 12H80c-44.2 0-80-35.8-80-80V80C0 35.8 35.8 0 80 0h344c13.3 0 24 10.7 24 24v368c0 10-6.2 18.6-14.9 22.2-3.6 16.1-4.4 45.6-.4 65.8zM128 384h288V32H128v352zm-96 16c13.4-10 30-16 48-16h16V32H80c-26.5 0-48 21.5-48 48v320zm372.3 80c-3.1-20.4-2.9-45.2 0-64H80c-64 0-64 64 0 64h324.3z"></path></symbol><symbol id="cloud-download" viewBox="0 0 640 512"><path d="M571.7 238.8c2.8-9.9 4.3-20.2 4.3-30.8 0-61.9-50.1-112-112-112-16.7 0-32.9 3.6-48 10.8-31.6-45-84.3-74.8-144-74.8-94.4 0-171.7 74.5-175.8 168.2C39.2 220.2 0 274.3 0 336c0 79.6 64.4 144 144 144h368c70.7 0 128-57.2 128-128 0-47-25.8-90.8-68.3-113.2zM512 448H144c-61.9 0-112-50.1-112-112 0-56.8 42.2-103.7 97-111-.7-5.6-1-11.3-1-17 0-79.5 64.5-144 144-144 60.3 0 111.9 37 133.4 89.6C420 137.9 440.8 128 464 128c44.2 0 80 35.8 80 80 0 18.5-6.3 35.6-16.9 49.2C573 264.4 608 304.1 608 352c0 53-43 96-96 96zM405.2 254.5c-4.7-4.7-12.3-4.7-17 0L320 322.7V172c0-6.6-5.4-12-12-12h-8c-6.6 0-12 5.4-12 12v150.7l-68.2-68.2c-4.7-4.7-12.3-4.7-17 0l-5.7 5.7c-4.7 4.7-4.7 12.3 0 17l98.3 98.3c4.7 4.7 12.3 4.7 17 0l98.3-98.3c4.7-4.7 4.7-12.3 0-17l-5.5-5.7z"></path></symbol><symbol id="cog" viewBox="0 0 512 512"><path d="M482.696 299.276l-32.61-18.827a195.168 195.168 0 0 0 0-48.899l32.61-18.827c9.576-5.528 14.195-16.902 11.046-27.501-11.214-37.749-31.175-71.728-57.535-99.595-7.634-8.07-19.817-9.836-29.437-4.282l-32.562 18.798a194.125 194.125 0 0 0-42.339-24.48V38.049c0-11.13-7.652-20.804-18.484-23.367-37.644-8.909-77.118-8.91-114.77 0-10.831 2.563-18.484 12.236-18.484 23.367v37.614a194.101 194.101 0 0 0-42.339 24.48L105.23 81.345c-9.621-5.554-21.804-3.788-29.437 4.282-26.36 27.867-46.321 61.847-57.535 99.595-3.149 10.599 1.47 21.972 11.046 27.501l32.61 18.827a195.168 195.168 0 0 0 0 48.899l-32.61 18.827c-9.576 5.528-14.195 16.902-11.046 27.501 11.214 37.748 31.175 71.728 57.535 99.595 7.634 8.07 19.817 9.836 29.437 4.283l32.562-18.798a194.08 194.08 0 0 0 42.339 24.479v37.614c0 11.13 7.652 20.804 18.484 23.367 37.645 8.909 77.118 8.91 114.77 0 10.831-2.563 18.484-12.236 18.484-23.367v-37.614a194.138 194.138 0 0 0 42.339-24.479l32.562 18.798c9.62 5.554 21.803 3.788 29.437-4.283 26.36-27.867 46.321-61.847 57.535-99.595 3.149-10.599-1.47-21.972-11.046-27.501zm-65.479 100.461l-46.309-26.74c-26.988 23.071-36.559 28.876-71.039 41.059v53.479a217.145 217.145 0 0 1-87.738 0v-53.479c-33.621-11.879-43.355-17.395-71.039-41.059l-46.309 26.74c-19.71-22.09-34.689-47.989-43.929-75.958l46.329-26.74c-6.535-35.417-6.538-46.644 0-82.079l-46.329-26.74c9.24-27.969 24.22-53.869 43.929-75.969l46.309 26.76c27.377-23.434 37.063-29.065 71.039-41.069V44.464a216.79 216.79 0 0 1 87.738 0v53.479c33.978 12.005 43.665 17.637 71.039 41.069l46.309-26.76c19.709 22.099 34.689 47.999 43.929 75.969l-46.329 26.74c6.536 35.426 6.538 46.644 0 82.079l46.329 26.74c-9.24 27.968-24.219 53.868-43.929 75.957zM256 160c-52.935 0-96 43.065-96 96s43.065 96 96 96 96-43.065 96-96-43.065-96-96-96zm0 160c-35.29 0-64-28.71-64-64s28.71-64 64-64 64 28.71 64 64-28.71 64-64 64z"></path></symbol><symbol id="cogs" viewBox="0 0 640 512"><path d="M538.6 196.4l-2.5-3.9c-4.1.3-8.1.3-12.2 0l-2.5 4c-5.8 9.2-17.1 13.4-27.5 10.1-13.8-4.3-23-8.8-34.3-18.1-9-7.4-11.2-20.3-5.4-30.4l2.5-4.3c-2.3-3.4-4.3-6.9-6.1-10.6h-9.1c-11.6 0-21.4-8.2-23.6-19.6-2.6-13.7-2.7-24.2.1-38.5 2.1-11.3 12.1-19.5 23.6-19.5h9c1.8-3.7 3.8-7.2 6.1-10.6l-2.6-4.5c-5.8-10-3.6-22.7 5.2-30.3 10.6-9.1 19.7-14.3 33.5-19 10.8-3.7 22.7.7 28.5 10.6l2.6 4.4c4.1-.3 8.1-.3 12.2 0l2.6-4.4c5.8-9.9 17.7-14.3 28.6-10.5 13.3 4.5 22.3 9.6 33.5 19.1 8.8 7.5 10.9 20.2 5.1 30.2l-2.6 4.4c2.3 3.4 4.3 6.9 6.1 10.6h5.1c11.6 0 21.4 8.2 23.6 19.6 2.6 13.7 2.7 24.2-.1 38.5-2.1 11.3-12.1 19.5-23.6 19.5h-5c-1.8 3.7-3.8 7.2-6.1 10.6l2.5 4.3c5.9 10.2 3.5 23.1-5.5 30.5-10.7 8.8-19.9 13.4-34 17.9-10.5 3.3-21.9-.8-27.7-10.1zm12.2-34.5l10.6 18.3c6.7-2.8 12.9-6.4 18.7-10.8l-10.6-18.3 6.4-7.5c4.8-5.7 8.6-12.1 11-19.1l3.3-9.3h21.1c.9-7.1.9-14.4 0-21.5h-21.1l-3.3-9.3c-2.5-7-6.2-13.4-11-19.1l-6.4-7.5L580 39.4c-5.7-4.4-12-8-18.7-10.8l-10.6 18.3-9.7-1.8c-7.3-1.4-14.8-1.4-22.1 0l-9.7 1.8-10.6-18.3C492 31.3 485.7 35 480 39.4l10.6 18.3-6.4 7.5c-4.8 5.7-8.6 12.1-11 19.1l-3.3 9.3h-21.1c-.9 7.1-.9 14.4 0 21.5h21.1l3.3 9.3c2.5 7 6.2 13.4 11 19.1l6.4 7.5-10.6 18.4c5.7 4.4 12 8 18.7 10.8l10.6-18.3 9.7 1.8c7.3 1.4 14.8 1.4 22.1 0l9.7-1.8zM145.3 454.4v-31.6c-12.9-5.5-25.1-12.6-36.4-21.1l-27.5 15.9c-9.8 5.6-22.1 3.7-29.7-4.6-24.2-26.3-38.5-49.5-50.6-88.1-3.4-10.7 1.1-22.3 10.8-28L39.2 281c-1.7-14-1.7-28.1 0-42.1l-27.3-15.8c-9.7-5.6-14.2-17.3-10.8-28 12.1-38.4 26.2-61.6 50.6-88.1 7.6-8.3 20-10.2 29.7-4.6l27.4 15.9c11.3-8.5 23.5-15.5 36.4-21.1V65.6c0-11.3 7.8-21 18.8-23.4 34.7-7.8 62-8.7 101.7 0 11 2.4 18.9 12.2 18.9 23.4v31.6c12.9 5.5 25.1 12.6 36.4 21l27.4-15.8c9.8-5.6 22.2-3.7 29.8 4.6 26.9 29.6 41.5 55.9 52.1 88.5 3.4 10.5-.8 21.9-10.2 27.7l-25 15.8c1.7 14 1.7 28.1 0 42.1l28.1 17.5c8.6 5.4 13 15.6 10.8 25.5-6.9 31.3-33 64.6-55.9 89.2-7.6 8.2-19.9 10-29.6 4.4L321 401.8c-11.3 8.5-23.5 15.5-36.4 21.1v31.6c0 11.2-7.8 21-18.8 23.4-37.5 8.3-64.9 8.2-101.9 0-10.8-2.5-18.6-12.3-18.6-23.5zm32-6.2c24.8 5 50.5 5 75.3 0v-47.7l10.7-3.8c16.8-5.9 32.3-14.9 45.9-26.5l8.6-7.4 41.4 23.9c16.8-19.1 34-41.3 42.1-65.2l-41.4-23.9 2.1-11.1c3.2-17.6 3.2-35.5 0-53.1l-2.1-11.1 41.4-23.9c-8.1-23.9-25.3-46.2-42.1-65.2l-41.4 23.9-8.6-7.4c-13.6-11.7-29-20.6-45.9-26.5l-10.7-3.8V71.8c-24.8-5-50.5-5-75.3 0v47.7l-10.7 3.8c-16.8 5.9-32.3 14.9-45.9 26.5l-8.6 7.4-41.4-23.9A192.19 192.19 0 0 0 33 198.5l41.4 23.9-2.1 11.1c-3.2 17.6-3.2 35.5 0 53.1l2.1 11.1L33 321.6c8.1 23.9 20.9 46.2 37.7 65.2l41.4-23.9 8.6 7.4c13.6 11.7 29 20.6 45.9 26.5l10.7 3.8v47.6zm38.4-105.3c-45.7 0-82.9-37.2-82.9-82.9s37.2-82.9 82.9-82.9 82.9 37.2 82.9 82.9-37.2 82.9-82.9 82.9zm0-133.8c-28 0-50.9 22.8-50.9 50.9s22.8 50.9 50.9 50.9c28 0 50.9-22.8 50.9-50.9s-22.8-50.9-50.9-50.9zm322.9 291.7l-2.5-3.9c-4.1.3-8.1.3-12.2 0l-2.5 4c-5.8 9.2-17.1 13.4-27.5 10.1-13.8-4.3-23-8.8-34.3-18.1-9-7.4-11.2-20.3-5.4-30.4l2.5-4.3c-2.3-3.4-4.3-6.9-6.1-10.6h-9.1c-11.6 0-21.4-8.2-23.6-19.6-2.6-13.7-2.7-24.2.1-38.5 2.1-11.3 12.1-19.5 23.6-19.5h9c1.8-3.7 3.8-7.2 6.1-10.6l-2.6-4.5c-5.8-10-3.6-22.7 5.2-30.3 10.6-9.1 19.7-14.3 33.5-19 10.8-3.7 22.7.7 28.5 10.6l2.6 4.4c4.1-.3 8.1-.3 12.2 0l2.6-4.4c5.8-9.9 17.7-14.3 28.6-10.5 13.3 4.5 22.3 9.6 33.5 19.1 8.8 7.5 10.9 20.2 5.1 30.2l-2.6 4.4c2.3 3.4 4.3 6.9 6.1 10.6h5.1c11.6 0 21.4 8.2 23.6 19.6 2.6 13.7 2.7 24.2-.1 38.5-2.1 11.3-12.1 19.5-23.6 19.5h-5c-1.8 3.7-3.8 7.2-6.1 10.6l2.5 4.3c5.9 10.2 3.5 23.1-5.5 30.5-10.7 8.8-19.9 13.4-34 17.9-10.5 3.2-21.9-.9-27.7-10.1zm12.2-34.6l10.6 18.3c6.7-2.8 12.9-6.4 18.7-10.8l-10.6-18.3 6.4-7.5c4.8-5.7 8.6-12.1 11-19.1l3.3-9.3h21.1c.9-7.1.9-14.4 0-21.5h-21.1l-3.3-9.3c-2.5-7-6.2-13.4-11-19.1l-6.4-7.5 10.6-18.3c-5.7-4.4-12-8-18.7-10.8l-10.6 18.3-9.7-1.8c-7.3-1.4-14.8-1.4-22.1 0l-9.7 1.8-10.6-18.3c-6.7 2.8-12.9 6.4-18.7 10.8l10.6 18.3-6.4 7.5c-4.8 5.7-8.6 12.1-11 19.1l-3.3 9.3h-21.1c-.9 7.1-.9 14.4 0 21.5h21.1l3.3 9.3c2.5 7 6.2 13.4 11 19.1l6.4 7.5-10.6 18.3c5.7 4.4 12 8 18.7 10.8l10.6-18.3 9.7 1.8c7.3 1.4 14.8 1.4 22.1 0l9.7-1.8zM560 408c0-17.7-14.3-32-32-32s-32 14.3-32 32 14.3 32 32 32 32-14.3 32-32zm0-304.3c0-17.7-14.3-32-32-32s-32 14.3-32 32 14.3 32 32 32 32-14.4 32-32z"></path></symbol><symbol id="comment" viewBox="0 0 512 512"><path d="M256 64c123.5 0 224 79 224 176S379.5 416 256 416c-28.3 0-56.3-4.3-83.2-12.8l-15.2-4.8-13 9.2c-23 16.3-58.5 35.3-102.6 39.6 12-15.1 29.8-40.4 40.8-69.6l7.1-18.7-13.7-14.6C47.3 313.7 32 277.6 32 240c0-97 100.5-176 224-176m0-32C114.6 32 0 125.1 0 240c0 47.6 19.9 91.2 52.9 126.3C38 405.7 7 439.1 6.5 439.5c-6.6 7-8.4 17.2-4.6 26 3.8 8.8 12.4 14.5 22 14.5 61.5 0 110-25.7 139.1-46.3 29 9.1 60.2 14.3 93 14.3 141.4 0 256-93.1 256-208S397.4 32 256 32z"></path></symbol><symbol id="cubes" viewBox="0 0 512 512"><path d="M488.6 256.7L388 219V107.9c0-15-9.3-28.4-23.4-33.7l-96-36c-8.1-3.1-17.1-3.1-25.3 0l-96 36c-14.1 5.3-23.4 18.7-23.4 33.7V219L23.4 256.7C9.3 262 0 275.4 0 290.4v101.3c0 13.6 7.7 26.1 19.9 32.2l96 48c10.1 5.1 22.1 5.1 32.2 0L256 418l107.9 54c10.1 5.1 22.1 5.1 32.2 0l96-48c12.2-6.1 19.9-18.6 19.9-32.2V290.4c0-15-9.3-28.4-23.4-33.7zM16.5 403.8V295.1l107.2 46.5v115.8zm231 0l-107.2 53.6V341.6l107.2-46.5zm0-126.7l-115.5 50-115.5-50v-.2L131 234l107.6 39.6 8.9 3.3zm.3-19.7L195 239.6l-54.5-20.4V112.5L247.8 159zM140.5 94.5v-.1L256 51l115.5 43.3v.2l-115.5 50zM264.2 159l107.2-46.5v106.7L317 239.6l-52.8 17.8zm107.6 298.4l-107.2-53.6V295.1l107.2 46.5zm123.7-53.6l-107.2 53.6V341.6l107.2-46.5zm0-126.7l-115.5 50L264.5 277v-.2l8.9-3.3L381 234l114.5 42.9z"></path></symbol><symbol id="database" viewBox="0 0 448 512"><path d="M224 32c106 0 192 28.75 192 64v32c0 35.25-86 64-192 64S32 163.25 32 128V96c0-35.25 86-64 192-64m192 149.5V224c0 35.25-86 64-192 64S32 259.25 32 224v-42.5c41.25 29 116.75 42.5 192 42.5s150.749-13.5 192-42.5m0 96V320c0 35.25-86 64-192 64S32 355.25 32 320v-42.5c41.25 29 116.75 42.5 192 42.5s150.749-13.5 192-42.5m0 96V416c0 35.25-86 64-192 64S32 451.25 32 416v-42.5c41.25 29 116.75 42.5 192 42.5s150.749-13.5 192-42.5M224 0C145.858 0 0 18.801 0 96v320c0 77.338 146.096 96 224 96 78.142 0 224-18.801 224-96V96c0-77.338-146.096-96-224-96z"></path></symbol><symbol id="exclamation-circle" viewBox="0 0 512 512"><path d="M256 40c118.621 0 216 96.075 216 216 0 119.291-96.61 216-216 216-119.244 0-216-96.562-216-216 0-119.203 96.602-216 216-216m0-32C119.043 8 8 119.083 8 256c0 136.997 111.043 248 248 248s248-111.003 248-248C504 119.083 392.957 8 256 8zm-11.49 120h22.979c6.823 0 12.274 5.682 11.99 12.5l-7 168c-.268 6.428-5.556 11.5-11.99 11.5h-8.979c-6.433 0-11.722-5.073-11.99-11.5l-7-168c-.283-6.818 5.167-12.5 11.99-12.5zM256 340c-15.464 0-28 12.536-28 28s12.536 28 28 28 28-12.536 28-28-12.536-28-28-28z"></path></symbol><symbol id="globe" viewBox="0 0 496 512"><path d="M248 8C111 8 0 119 0 256s111 248 248 248 248-111 248-248S385 8 248 8zm193.2 152h-82.5c-9-44.4-24.1-82.2-43.2-109.1 55 18.2 100.2 57.9 125.7 109.1zM336 256c0 22.9-1.6 44.2-4.3 64H164.3c-2.7-19.8-4.3-41.1-4.3-64s1.6-44.2 4.3-64h167.4c2.7 19.8 4.3 41.1 4.3 64zM248 40c26.9 0 61.4 44.1 78.1 120H169.9C186.6 84.1 221.1 40 248 40zm-67.5 10.9c-19 26.8-34.2 64.6-43.2 109.1H54.8c25.5-51.2 70.7-90.9 125.7-109.1zM32 256c0-22.3 3.4-43.8 9.7-64h90.5c-2.6 20.5-4.2 41.8-4.2 64s1.5 43.5 4.2 64H41.7c-6.3-20.2-9.7-41.7-9.7-64zm22.8 96h82.5c9 44.4 24.1 82.2 43.2 109.1-55-18.2-100.2-57.9-125.7-109.1zM248 472c-26.9 0-61.4-44.1-78.1-120h156.2c-16.7 75.9-51.2 120-78.1 120zm67.5-10.9c19-26.8 34.2-64.6 43.2-109.1h82.5c-25.5 51.2-70.7 90.9-125.7 109.1zM363.8 320c2.6-20.5 4.2-41.8 4.2-64s-1.5-43.5-4.2-64h90.5c6.3 20.2 9.7 41.7 9.7 64s-3.4 43.8-9.7 64h-90.5z"></path></symbol><symbol id="language" viewBox="0 0 640 512"><path d="M616 96H24c-13.255 0-24 10.745-24 24v272c0 13.255 10.745 24 24 24h592c13.255 0 24-10.745 24-24V120c0-13.255-10.745-24-24-24zM304 384H32V128h272v256zm304 0H336V128h272v256zM91.088 352h10.34a12 12 0 0 0 11.397-8.243l13.508-40.973h67.335l13.508 40.973A12.001 12.001 0 0 0 218.573 352h10.339c8.276 0 14.067-8.18 11.319-15.985l-59.155-168A12 12 0 0 0 169.757 160h-19.513a12 12 0 0 0-11.319 8.014l-59.155 168C77.021 343.82 82.812 352 91.088 352zm60.663-128.991c3.787-10.818 8.113-29.747 8.113-29.747h.541s4.057 18.929 7.572 29.747l17.036 51.38h-50.298l17.036-51.38zM384 212v-8c0-6.627 5.373-12 12-12h68v-20c0-6.627 5.373-12 12-12h8c6.627 0 12 5.373 12 12v20h68c6.627 0 12 5.373 12 12v8c0 6.627-5.373 12-12 12h-15.699c-7.505 24.802-23.432 50.942-44.896 74.842 10.013 9.083 20.475 17.265 30.924 24.086 5.312 3.467 6.987 10.475 3.84 15.982l-3.987 6.976c-3.429 6.001-11.188 7.844-16.993 4.091-13.145-8.5-25.396-18.237-36.56-28.5-11.744 10.454-24.506 20.146-37.992 28.68-5.761 3.646-13.409 1.698-16.791-4.221l-3.972-6.95c-3.197-5.594-1.379-12.672 4.058-16.129 11.382-7.237 22.22-15.428 32.24-24.227-10.026-11.272-18.671-22.562-25.687-33.033-3.833-5.721-2.11-13.48 3.803-17.01l6.867-4.099c5.469-3.264 12.55-1.701 16.092 3.592 6.379 9.531 13.719 18.947 21.677 27.953 15.017-16.935 26.721-34.905 33.549-52.033H396c-6.627 0-12-5.373-12-12z"></path></symbol><symbol id="laptop" viewBox="0 0 640 512"><path d="M624 368h-48V96c0-35.3-28.72-64-64-64H128c-35.28 0-64 28.7-64 64v272H16c-8.84 0-16 7.16-16 16v48c0 44.11 35.88 80 80 80h480c44.12 0 80-35.89 80-80v-48c0-8.84-7.16-16-16-16zM96 96c0-17.67 14.33-32 32-32h384c17.67 0 32 14.33 32 32v272H391.13c-4.06 0-7.02 3.13-7.92 7.09C379.98 389.35 367.23 400 352 400h-64c-15.23 0-27.98-10.65-31.21-24.91-.9-3.96-3.86-7.09-7.92-7.09H96V96zm512 336c0 26.47-21.53 48-48 48H80c-26.47 0-48-21.53-48-48v-32h194.75c6.59 18.62 24.38 32 45.25 32h96c20.88 0 38.66-13.38 45.25-32H608v32z"></path></symbol><symbol id="lightbulb" viewBox="0 0 352 512"><path d="M176 0C73.05 0-.12 83.54 0 176.24c.06 44.28 16.5 84.67 43.56 115.54C69.21 321.03 93.85 368.68 96 384l.06 75.18c0 3.15.94 6.22 2.68 8.84l24.51 36.84c2.97 4.46 7.97 7.14 13.32 7.14h78.85c5.36 0 10.36-2.68 13.32-7.14l24.51-36.84c1.74-2.62 2.67-5.7 2.68-8.84L256 384c2.26-15.72 26.99-63.19 52.44-92.22C335.55 260.85 352 220.37 352 176 352 78.8 273.2 0 176 0zm47.94 454.31L206.85 480h-61.71l-17.09-25.69-.01-6.31h95.9v6.31zm.04-38.31h-95.97l-.07-32h96.08l-.04 32zm60.4-145.32c-13.99 15.96-36.33 48.1-50.58 81.31H118.21c-14.26-33.22-36.59-65.35-50.58-81.31C44.5 244.3 32.13 210.85 32.05 176 31.87 99.01 92.43 32 176 32c79.4 0 144 64.6 144 144 0 34.85-12.65 68.48-35.62 94.68zM176 64c-61.75 0-112 50.25-112 112 0 8.84 7.16 16 16 16s16-7.16 16-16c0-44.11 35.88-80 80-80 8.84 0 16-7.16 16-16s-7.16-16-16-16z"></path></symbol><symbol id="list" viewBox="0 0 512 512"><path d="M88 56H40a16 16 0 0 0-16 16v48a16 16 0 0 0 16 16h48a16 16 0 0 0 16-16V72a16 16 0 0 0-16-16zm0 160H40a16 16 0 0 0-16 16v48a16 16 0 0 0 16 16h48a16 16 0 0 0 16-16v-48a16 16 0 0 0-16-16zm0 160H40a16 16 0 0 0-16 16v48a16 16 0 0 0 16 16h48a16 16 0 0 0 16-16v-48a16 16 0 0 0-16-16zm416 24H168a8 8 0 0 0-8 8v16a8 8 0 0 0 8 8h336a8 8 0 0 0 8-8v-16a8 8 0 0 0-8-8zm0-320H168a8 8 0 0 0-8 8v16a8 8 0 0 0 8 8h336a8 8 0 0 0 8-8V88a8 8 0 0 0-8-8zm0 160H168a8 8 0 0 0-8 8v16a8 8 0 0 0 8 8h336a8 8 0 0 0 8-8v-16a8 8 0 0 0-8-8z"></path></symbol><symbol id="mobile" viewBox="0 0 320 512"><path d="M192 416c0 17.7-14.3 32-32 32s-32-14.3-32-32 14.3-32 32-32 32 14.3 32 32zM320 48v416c0 26.5-21.5 48-48 48H48c-26.5 0-48-21.5-48-48V48C0 21.5 21.5 0 48 0h224c26.5 0 48 21.5 48 48zm-32 0c0-8.8-7.2-16-16-16H48c-8.8 0-16 7.2-16 16v416c0 8.8 7.2 16 16 16h224c8.8 0 16-7.2 16-16V48z"></path></symbol><symbol id="newspaper" viewBox="0 0 576 512"><path d="M552 64H88c-13.234 0-24 10.767-24 24v8H24c-13.255 0-24 10.745-24 24v280c0 26.51 21.49 48 48 48h504c13.233 0 24-10.767 24-24V88c0-13.233-10.767-24-24-24zM32 400V128h32v272c0 8.822-7.178 16-16 16s-16-7.178-16-16zm512 16H93.258A47.897 47.897 0 0 0 96 400V96h448v320zm-404-96h168c6.627 0 12-5.373 12-12V140c0-6.627-5.373-12-12-12H140c-6.627 0-12 5.373-12 12v168c0 6.627 5.373 12 12 12zm20-160h128v128H160V160zm-32 212v-8c0-6.627 5.373-12 12-12h168c6.627 0 12 5.373 12 12v8c0 6.627-5.373 12-12 12H140c-6.627 0-12-5.373-12-12zm224 0v-8c0-6.627 5.373-12 12-12h136c6.627 0 12 5.373 12 12v8c0 6.627-5.373 12-12 12H364c-6.627 0-12-5.373-12-12zm0-64v-8c0-6.627 5.373-12 12-12h136c6.627 0 12 5.373 12 12v8c0 6.627-5.373 12-12 12H364c-6.627 0-12-5.373-12-12zm0-128v-8c0-6.627 5.373-12 12-12h136c6.627 0 12 5.373 12 12v8c0 6.627-5.373 12-12 12H364c-6.627 0-12-5.373-12-12zm0 64v-8c0-6.627 5.373-12 12-12h136c6.627 0 12 5.373 12 12v8c0 6.627-5.373 12-12 12H364c-6.627 0-12-5.373-12-12z"></path></symbol><symbol id="paint-brush" viewBox="0 0 512 512"><path d="M455.59 0c-15.81 0-30.62 6.99-41.93 17.15C195.73 211.82 169.77 216.5 179.98 281.99c-41.52 4.96-78.59 24.05-100.32 81.32-2.68 7.08-9.12 11.38-16.64 11.38-12.67 0-51.85-31.56-63.02-39.19C0 429.45 43.26 512 146 512c117.18 0 152.72-87.75 145.06-145.89 56.9-7.01 97.15-62.51 206.45-266.49C505.2 84.65 512 68.48 512 51.66 512 21.52 484.89 0 455.59 0zM236.52 445.55C216.47 468.41 186.02 480 146 480c-63.78 0-92.29-38.83-104.75-78.69 8.02 3.65 14.98 5.39 21.77 5.39 20.92 0 39.2-12.58 46.56-32.03 6.65-17.52 16.05-53.95 83.76-62.04l65.08 50.62c4.03 30.68-1.25 58.75-21.9 82.3zM469.31 84.5c-118.4 220.96-143.69 245.11-194.08 251.31l-62-48.22c-8.8-56.43-14.8-35.28 221.82-246.64 6.33-5.69 13.81-8.95 20.54-8.95C467.38 32 480 39.9 480 51.66c0 10.58-5.54 22.79-10.69 32.84z"></path></symbol><symbol id="pencil" viewBox="0 0 512 512"><path d="M493.255 56.236l-37.49-37.49c-24.993-24.993-65.515-24.994-90.51 0L12.838 371.162.151 485.346c-1.698 15.286 11.22 28.203 26.504 26.504l114.184-12.687 352.417-352.417c24.992-24.994 24.992-65.517-.001-90.51zm-95.196 140.45L174 420.745V386h-48v-48H91.255l224.059-224.059 82.745 82.745zM126.147 468.598l-58.995 6.555-30.305-30.305 6.555-58.995L63.255 366H98v48h48v34.745l-19.853 19.853zm344.48-344.48l-49.941 49.941-82.745-82.745 49.941-49.941c12.505-12.505 32.748-12.507 45.255 0l37.49 37.49c12.506 12.506 12.507 32.747 0 45.255z"></path></symbol><symbol id="user-circle" viewBox="0 0 496 512"><path d="M248 8C111 8 0 119 0 256s111 248 248 248 248-111 248-248S385 8 248 8zm128 421.6c-35.9 26.5-80.1 42.4-128 42.4s-92.1-15.9-128-42.4V416c0-35.3 28.7-64 64-64 11.1 0 27.5 11.4 64 11.4 36.6 0 52.8-11.4 64-11.4 35.3 0 64 28.7 64 64v13.6zm30.6-27.5c-6.8-46.4-46.3-82.1-94.6-82.1-20.5 0-30.4 11.4-64 11.4S204.6 320 184 320c-48.3 0-87.8 35.7-94.6 82.1C53.9 363.6 32 312.4 32 256c0-119.1 96.9-216 216-216s216 96.9 216 216c0 56.4-21.9 107.6-57.4 146.1zM248 120c-48.6 0-88 39.4-88 88s39.4 88 88 88 88-39.4 88-88-39.4-88-88-88zm0 144c-30.9 0-56-25.1-56-56s25.1-56 56-56 56 25.1 56 56-25.1 56-56 56z"></path></symbol><symbol id="wrench" viewBox="0 0 512 512"><path d="M507.42 114.49c-2.34-9.47-9.66-16.98-19.06-19.61-9.47-2.61-19.65 0-26.65 6.98l-63.87 63.87-44.25-7.36-7.38-44.24 63.87-63.87c6.94-6.92 9.62-17.09 7-26.54-2.62-9.47-10.19-16.83-19.75-19.2C345.6-8.31 291.95 6.54 254.14 44.3c-37.84 37.87-52.21 92.52-38.62 144.7L22.19 382.29c-29.59 29.63-29.59 77.83 0 107.45C36.54 504.09 55.63 512 75.94 512s39.37-7.91 53.71-22.26l193.14-193.11c52.03 13.73 106.8-.72 144.89-38.82 37.81-37.81 52.68-91.39 39.74-143.32zm-62.36 120.7c-31.87 31.81-78.43 42.63-121.77 28.23l-9.38-3.14-206.88 206.84c-16.62 16.62-45.59 16.62-62.21 0-17.12-17.14-17.12-45.06 0-62.21l207.01-206.98-3.09-9.34c-14.31-43.45-3.56-90.06 28.03-121.67C299.48 44.2 329.44 32 360.56 32c6.87 0 13.81.59 20.72 1.81l-69.31 69.35 13.81 83.02L408.84 200l69.3-69.35c6.72 38.25-5.34 76.79-33.08 104.54zM80 416c-8.84 0-16 7.16-16 16s7.16 16 16 16 16-7.16 16-16-7.16-16-16-16z"></path></symbol></svg>
