<svg viewBox="0 0 30240 15120" xmlns="http://www.w3.org/2000/svg" xmlns:xlink="http://www.w3.org/1999/xlink">
 <defs>
  <path id="a" d="M0-9l1.736 5.396 5.3-2.007L3.9-.891l4.874 2.894-5.647.491.778 5.615L0 4l-3.905 4.109.778-5.615-5.647-.491L-3.9-.89l-3.136-4.721 5.3 2.007L0-9z"/>
  <path id="g" d="M0-9l2.351 5.764 6.209.455-4.756 4.017L5.29 7.281 0 4l-5.29 3.281 1.486-6.045L-8.56-2.78l6.209-.455L0-9z"/>
 </defs>
 <path d="M0 0h30240v15120H0V0z" fill="#00008b"/>
 <g fill="#fff">
  <use transform="matrix(252 0 0 252 7560 11340)" xlink:href="#a"/>
  <use transform="matrix(120 0 0 120 22680 12600)" xlink:href="#a"/>
  <use transform="matrix(120 0 0 120 18900 6615)" xlink:href="#a"/>
  <use transform="matrix(120 0 0 120 22680 2520)" xlink:href="#a"/>
  <use transform="matrix(120 0 0 120 26040 5607)" xlink:href="#a"/>
  <use transform="matrix(70 0 0 70 24192 8190)" xlink:href="#g"/>
  <path d="M6300 0h2520v2520h6300v2520H8820v2520H6300V5040H0V2520h6300V0z"/>
  <path id="f" d="M0 0h1690.467L15120 6714.766V7560h-1690.467L0 845.234V0z" fill="#fff"/>
  <use transform="matrix(-1 0 0 1 15120 0)" xlink:href="#f"/>
 </g>
 <g fill="red">
  <path d="M6804 0h1512v3024h6804v1512H8316v3024H6804V4536H0V3024h6804V0z"/>
  <path id="e" d="M0 0l5040 2520H3913.022L0 563.49V0zm15120 0h-1126.978l-5040 2520H10080L15120 0z" fill="red"/>
  <use transform="rotate(180 7560 3780)" xlink:href="#e"/>
 </g>
</svg>
