<svg width="2260" height="2260" viewBox="0 0 2260 2260" xmlns="http://www.w3.org/2000/svg">
 <path fill="#09397F" d="M900 1908c137.17-53.265 443.401-77.006 600-52.437-27.114-474.75-34.113-758.178-7.68-1116.318 2.056-27.195 4.283-54.9 6.68-83.245-34.633 68.628-579.454 1206.43-599 1252z"/>
 <path fill="#095FA8" d="M1503 297c-123.836 327.12-161.3 844.46-213.465 1389.52-169.502-13.113-449.007 19.795-659.305 108.824C643.758 1771.594 1401.461 465.26 1503 297z"/>
 <path fill="#09397F" d="M1172 1270c-224.304-65.046-473.09 64.996-694 204C631.353 1238.571 1091.25 537.106 1489 0c-301.506 419.861-317.184 1087.933-317 1270z"/>
 <path fill="#09397F" d="M620.796 2258.73c.662-1.037 1.36-2.165 2.068-3.191 36.736-55.29 105.692-101.177 205.103-96.72 193.8 8.619 357.238 25.577 652.18 7.207-290.1-9.342-643.351-48.142-1069.102-124.55 105.834 77.98 193.83 195.404 209.763 217.253"/>
 <path fill="#095FA8" d="M2259.24 2007.878c-351.827 85.376-1111.265 54.312-2014.169-105.238 59.534 32.024 105.241 68.44 160.567 113.871 884.551 158.714 1465.735 153.54 1808.655 60.37 31.307-22.43 35.385-37.956 44.934-69.006"/>
 <path fill="#09397F" d="M2250.776 1985.617c-316.53 76.867-975.996 46.6-1793.466-72.332-79.588-11.605-308.233-46.57-445.63-69.063-7.464-15.506-11.282-40.462-11.282-70.79 509.451 68.675 1799.558 275.424 2243.969 168.26 2.015 12.02 7.115 18.487 6.527 43.929"/>
</svg>
