<svg viewBox="0 0 4119 2460" xmlns="http://www.w3.org/2000/svg">
 <g fill="none">
  <path d="M2855.9 2208.9c-444.76 85.143-1404.8 54.164-2546.2-104.95 75.26 31.937 133.04 68.253 202.98 113.56 1118.2 158.28 1852.9 153.12 2286.4 60.205 39.577-22.368 44.732-37.852 56.803-68.818" fill="#9F0E22"/>
  <path d="M765.28 1930.2a840.16 840.16 0 0 1-9.348 22.547c122.58-31.262 229.48-106.9 349.51-36.491 16.034-224.62 48.225-467.4 174.37-822.2 4.32-89.493 10.636-181.18 19.07-280.84-33.555 396.8-33.555 668-4.492 1176.8-156.68-24.477-439.34-6.69-576.59 46.577 11.185-26.04 27.436-62.37 47.489-106.34" fill="#4997D9"/>
  <path d="M569.18 1702.7c210.32-89.02 259.82-182.91 429.34-169.8 52.173-545.04 179.88-751.07 303.74-1078.2-101.56 168.26-201.66 336.22-296.09 496.09.005-.03.017-.072.02-.102 100.29-169.82 207-348.74 315.05-527.44-188.36 499.77-230.84 1243.6-230.84 1425.6-76.943-40.188-346.85-21.852-661.78 104.85 26.442-49.064 75.225-136.25 140.56-250.94" fill="#0974C5"/>
  <path d="M1288.9 157.65c-301.56 419.81-317.24 1087.8-317.24 1269.8-224.16-64.993-472.99 65.033-693.94 204.02 153.38-235.4 613.36-936.78 1011.1-1473.8" fill="#095FA8"/>
  <g fill="#09397F">
   <path d="M2845.2 2186.7c-400.14 76.657-1233.8 46.473-2267.2-72.134-100.61-11.573-389.65-46.443-563.34-68.874-9.435-15.464-14.262-40.351-14.262-70.596 644.02 68.487 2274.9 274.67 2836.7 167.8 2.547 11.986 8.995 18.436 8.251 43.808"/>
   <path d="M800.98 1845.9c1.102-.182 2.2-.374 3.302-.557-14.066 30.406-27.083 58.715-38.802 84.418-.067.15-.127.305-.19.461-20.052 43.975-36.304 80.306-47.49 106.34 137.25-53.267 419.92-71.054 576.6-46.577-28.88-505.67-29.053-776.68 3.892-1169.6.203-.407.407-.794.6-1.191-33.555 396.79-27.596 685.87 1.478 1194.7-156.69-24.572-463.1-.828-600.35 52.443 19.557-45.575 55.57-123.88 100.97-220.47m-16.32 613.2c.837-1.035 1.72-2.16 2.615-3.183 46.439-55.138 133.61-100.9 259.28-96.455 244.99 8.595 451.6 25.507 824.45 7.187-366.73-9.316-813.29-48.01-1351.5-124.21 133.79 77.767 245.03 194.87 265.17 216.66"/>
  </g>
  <path d="M765.48 1929.7c11.72-25.703 24.736-54.012 38.802-84.418 138.8-23.199 242.9-19.1 286.11 3.458 0-107.53 14.873-411.45 65.94-745.26 57.333-118.46 107.92-221.65 142.55-290.31-8.435 99.66-14.751 191.34-19.07 280.84-126.15 354.81-158.34 597.59-174.37 822.2-120.02-70.414-226.92 5.229-349.51 36.49a848.584 848.584 0 0 0 9.538-23.008" fill="#000"/>
  <path d="M609.86 1631.5c36.378-63.518 76.72-133.57 120.3-208.81 82.04-16.92 163.26-17.99 241.51 4.706 0-82.199 3.203-263.64 34.52-476.58 94.423-159.86 194.53-327.83 296.08-496.09-123.85 327.12-251.57 533.14-303.74 1078.2-169.52-13.112-219.02 80.771-429.34 169.8a35953.886 35953.886 0 0 1 40.668-71.205M1644.604.503c-19.56 227.23-23.97 455.16-24.582 683.14-1.242 459.45 7.1 918.98 12.54 1378.4.225 18.843 47.543 49.12 47.574 52.157-5.4-456.28-13.396-912.64-12.56-1368.9.417-231.09 4.777-462.2 24.6-692.55 1.529-17.735-47.684-50.894-47.572-52.157m432.7 168.2c-12.377 617.36-47.99 1234-60.093 1851.4-.366 18.523 47.624 49.685 47.574 52.157 12.112-617.37 47.726-1234 60.093-1851.4.377-18.52-47.625-49.702-47.574-52.167" fill="#000"/>
  <path d="M1491.1 1572.8c-12.928-2.291-28.239-38.782-30.164-39.152 415.4 74.357 840.36 72.152 1260.9 72.152 14.302 0 27.423 39.245 32.914 39.245-23.532 0-47.034.007-70.596.007-398.29 0-800.07-1.961-1193.1-72.251" fill="#000"/>
  <g fill="#000">
   <path d="M2358.253 1790.991c-49.302-20.23-108.08-33.91-153.926 1.457-31.491 24.284-26.661 64.927-8.522 94.928 59.26 97.945 171.246 80.291 235.643-4.126l-32.619-35.85c12.172 24.211 32.476 59.682 58.84 71.064 35.15 15.16 66.826-21.615 89.222-43.918 13.433-13.394 26.538-26.962 41.857-38.221 28.928-21.297 53.035 8.19 72.488 29.733 33.51 37.124 66.13 69.577 118.785 72.45-.461-.02-18.273-39.073-30.62-39.74-54.798-2.997-82.002-40.233-118.005-76.442-14.817-14.893-37.233-37.308-59.998-33.747-19.216 3.007-124.702 122.557-140.719 90.689-2.01-4.003-29.317-40.192-32.629-35.85-26.415 34.618-56.757 59.99-99.435 70.971-27.533 7.082-78.21 3.777-83.716-26.674-17.37-96.108 127.255-76.156 173.963-56.973-4.317-1.776-17.196-34.24-30.609-39.751m597.803-449.902c24.138 179.766-2.625 357.315-122.549 498.89-5.414 6.394 31.378 42.214 33.388 39.833 120.662-142.448 147.2-321.044 122.949-501.651-1.877-14.01-33.296-33.418-33.788-37.072"/>
   <path d="M2786.348 1766.05c83.962-9.144 192.698.924 266.077 45.622 17.945 10.93 7.465 40.038-1.856 54.007-13.29 19.9-40.227 28.625-61.843 34.824-47.467 13.63-99.251 10.304-148.051 10.027 5.65.031 18.847 39.751 33.388 39.833 64.684.38 140.063 6.456 196.215-31.488 45.098-30.483 19.873-81.77-8.388-112.756-71.226-78.115-209.135-90.78-308.93-79.901 3.804-.421 19.945 41.3 33.388 39.833m515.625 8.693c-45.611-37.462-150.963-41.875-161.874 33.88-5.434 37.718 39.356 79.645 67.114 97.986 61.444 40.623 144.206 2.432 170.662-60.463 14.869-35.337 47.364-.359 79.809.944 32.342 1.294 57.352-30.482 75.984-52.313-11.126-13.28-22.262-26.562-33.388-39.833-10.48 63.234 21 138.445 90.145 152.363 70.006 14.091 148.523-44.893 151.63-115.701.502-11.32-34.331-35.676-33.593-38.458-12.962 49.399-11.26 146.369 64.653 141.34 74.128-4.917 126.876-76.987 196.707-92.762-11.208-12.82-22.405-25.639-33.603-38.458-15.053 109.656 88.33 160.152 182.649 152.598-4.276.34-19.637-40.94-33.388-39.832-28.435 2.268-55.916 1.621-83.685-5.163-37.069-9.063-36.177-38.53-31.788-70.52 1.025-7.431-25.902-40.193-33.593-38.458-44.596 10.068-86.72 46.114-126.773 67.113-21.986 11.516-45.201 22.056-69.924 25.638a47.802 47.802 0 0 1-14.807-.43c-15.597-2.207 11.638 28.132 7.803 8.405-4.43-22.754 3.435-47.869 9.137-69.638-11.198-12.82-22.385-25.638-33.583-38.457-2.328 53.093-43.406 89.723-90.637 106.925-22.847 8.334-47.939 9.514-71.247 2.843a65.848 65.848 0 0 1-15.607-7.44c8.48 12.223 9.373 10.97 2.677-3.747-5.569-18.546-2.861-39.761.215-58.328 1.302-7.851-30.64-43.076-33.388-39.833-18.683 21.872-37.233 43.313-65.73 51.339-27.686 7.8-61.474-14.492-84.249-26.757-1.323-.503-1.856-.062-1.59 1.334-6.52 78.218-90.79 118.708-160.068 92.351-31.46-11.977-9.188-49.142 6.593-63.716 32.445-29.939 92.842-30.37 126.117-3.038 16.571 13.61-13.638-26.983-19.38-31.714"/>
  </g>
 </g>
</svg>
