/* XPM */
static char *harbour-32x32[] = {
/* columns rows colors chars-per-pixel */
"32 32 191 2",
"   c black",
".  c #020000",
"X  c #030006",
"o  c #00060E",
"O  c #130000",
"+  c #060C3B",
"@  c #021E36",
"#  c #031B3D",
"$  c #041B3D",
"%  c #0B065B",
"&  c #041C40",
"*  c #041E42",
"=  c #042047",
"-  c #05214B",
";  c #052451",
":  c #052655",
">  c #07205D",
",  c #062758",
"<  c #062A60",
"1  c #062B60",
"2  c #072C65",
"3  c #072F68",
"4  c #072F6A",
"5  c #072F6B",
"6  c #082867",
"7  c #082D6E",
"8  c #082F71",
"9  c #07306A",
"0  c #07306B",
"q  c #07306C",
"w  c #07316D",
"e  c #07306E",
"r  c #07316E",
"t  c #053E6F",
"y  c #073270",
"u  c #073271",
"i  c #073371",
"p  c #083171",
"a  c #083172",
"s  c #083371",
"d  c #083272",
"f  c #083372",
"g  c #083373",
"h  c #083375",
"j  c #083473",
"k  c #083475",
"l  c #083476",
"z  c #083477",
"x  c #083576",
"c  c #083577",
"v  c #083578",
"b  c #083579",
"n  c #083678",
"m  c #083679",
"M  c #08367A",
"N  c #08367B",
"B  c #08377A",
"V  c #08377B",
"C  c #08367C",
"Z  c #08377C",
"A  c #08377D",
"S  c #09377D",
"D  c #08387C",
"F  c #08387D",
"G  c #08397C",
"H  c #08387E",
"J  c #08397E",
"K  c #09387E",
"L  c #09387F",
"P  c #09397F",
"I  c #083A7E",
"U  c #083A7F",
"Y  c #064174",
"T  c #083B80",
"R  c #083B81",
"E  c #093A80",
"W  c #093B81",
"Q  c #093A83",
"!  c #093B84",
"~  c #083C80",
"^  c #083C81",
"/  c #083D81",
"(  c #083D82",
")  c #093C82",
"_  c #093D83",
"`  c #083E82",
"'  c #083E83",
"]  c #083E84",
"[  c #083F85",
"{  c #093F86",
"}  c #093D88",
"|  c #093E8A",
" . c #0A3E8C",
".. c #0A3F8C",
"X. c #064A83",
"o. c #074B86",
"O. c #074988",
"+. c #074F8C",
"@. c #074F8E",
"#. c #084082",
"$. c #084085",
"%. c #084185",
"&. c #084186",
"*. c #084188",
"=. c #084388",
"-. c #094288",
";. c #094289",
":. c #08438A",
">. c #09438A",
",. c #084589",
"<. c #08448A",
"1. c #08448B",
"2. c #08468B",
"3. c #08468C",
"4. c #08478C",
"5. c #09468D",
"6. c #09478E",
"7. c #08488E",
"8. c #084A8D",
"9. c #084A8E",
"0. c #094890",
"q. c #084A90",
"w. c #094B93",
"e. c #084C92",
"r. c #084C93",
"t. c #084D92",
"y. c #084D93",
"u. c #094C93",
"i. c #084E94",
"p. c #084F94",
"a. c #094E96",
"s. c #075190",
"d. c #075291",
"f. c #075495",
"g. c #075C9D",
"h. c #085097",
"j. c #085597",
"k. c #085399",
"l. c #09529A",
"z. c #085599",
"x. c #08549A",
"c. c #08559A",
"v. c #085699",
"b. c #08579A",
"n. c #08579B",
"m. c #08559C",
"M. c #09549D",
"N. c #08579D",
"B. c #08569F",
"V. c #08579E",
"C. c #08579F",
"Z. c #08589F",
"A. c #08599E",
"S. c #08599F",
"D. c #0C4FB0",
"F. c #0957A0",
"G. c #0858A0",
"H. c #0859A0",
"J. c #0958A1",
"K. c #085AA0",
"L. c #085BA0",
"P. c #085BA1",
"I. c #085AA2",
"U. c #085BA2",
"Y. c #085BA3",
"T. c #095AA2",
"R. c #085BA4",
"E. c #095BA4",
"W. c #085CA2",
"Q. c #085CA3",
"!. c #085CA4",
"~. c #085DA4",
"^. c #085DA5",
"/. c #095CA4",
"(. c #085DA6",
"). c #095DA6",
"_. c #085EA4",
"`. c #085EA5",
"'. c #085EA6",
"]. c #085EA7",
"[. c #085FA7",
"{. c #095EA6",
"}. c #095EA7",
"|. c #085FA8",
" X c #095FA8",
".X c #0861A7",
"XX c #0860A9",
"oX c #0965B3",
"OX c #0483A8",
"+X c #19E6FF",
"@X c None",
/* pixels */
"@X@X@X@X@X@X@X@X@X@X@X@X@X@X@X@X@X@X@Xr : * @X@X@X@X@X@X@X@X@X@X",
"@X@X@X@X@X@X@X@X@X@X@X@X@X@X@X@X@X@X@Xf r @X@X@X@X@X@X@X@X@X@X@X",
"@X@X@X@X@X@X@X@X@X@X@X@X@X@X@X@X@X@Xc c f @X@X@X@X@X@X@X@X@X@X@X",
"@X@X@X@X@X@X@X@X@X@X@X@X@X@X@X@X@Xu m m @Xt @X@X@X@X@X@X@X@X@X@X",
"@X@X@X@X@X@X@X@X@X@X@X@X@X@X@X@X@XZ Z c f.+.@X@X@X@X@X@X@X@X@X@X",
"@X@X@X@X@X@X@X@X@X@X@X@X@X@X@X@Xm Z Z @XA.b.@X@X@X@X@X@X@X@X@X@X",
"@X@X@X@X@X@X@X@X@X@X@X@X@X@X@Xf Z Z m `.W.o.@X@X@X@X@X@X@X@X@X@X",
"@X@X@X@X@X@X@X@X@X@X@X@X@X@X@XS E Z $.`.`.@X@X@X@X@X@X@X@X@X@X@X",
"@X@X@X@X@X@X@X@X@X@X@X@X@X@Xm E Z S `.`.W.@X@X@X@X@X@X@X@X@X@X@X",
"@X@X@X@X@X@X@X@X@X@X@X@X@Xc S Z Z ) `.|.8.r @X@X@X@X@X@X@X@X@X@X",
"@X@X@X@X@X@X@X@X@X@X@X@X@XS S E E i.|.`.Z m @X@X@X@X@X@X@X@X@X@X",
"@X@X@X@X@X@X@X@X@X@X@X@Xm S E S E S.|.S.Z S @X@X@X@X@X@X@X@X@X@X",
"@X@X@X@X@X@X@X@X@X@X@Xc Z Z E S } `.|.u.Z S @X@X@X@X@X@X@X@X@X@X",
"@X@X@X@X@X@X@X@X@X@X@XZ E E E S :.`.|.3.Z m @X@X@X@X@X@X@X@X@X@X",
"@X@X@X@X@X@X@X@X@X@Xm Z Z Z E S >.`.`.:.Z m @X@X@X@X@X@X@X@X@X@X",
"@X@X@X@X@X@X@X@X@Xc Z E E E E S 3.|.E.[ Z m @X@X@X@X@X@X@X@X@X@X",
"@X@X@X@X@X@X@X@X@XZ Z E S S S S 6.|.E.Q E S @X@X@X@X@X@X@X@X@X@X",
"@X@X@X@X@X@X@X@Xm Z E Z S [ :.:.u.|.S.E Z m @X@X@X@X@X@X@X@X@X@X",
"@X@X@X@X@X@X@Xc Z E Z S 0.E.|.E.|.|.M.E Z m @X@X@X@X@X@X@X@X@X@X",
"@X@X@X@X@X@X@Xm Z S c A.`.|.|.|.|.|.l.E Z m @X@X@X@X@X@X@X@X@X@X",
"@X@X@X@X@X@Xf m m @X@XE.|.|.|.|.|.|.a.E S m @X@X@X@X@X@X@X@X@X@X",
"@X@X@X@X@X@X3 w @X@XA.`.|.`.|.E.|.|.u.S S S @X@X@X@X@X@X@X@X@X@X",
"@X@X@X@X@X@X@X@X@X@X`.`.|.|.|.|.|.|.6.S S m @X@X@X@X@X@X@X@X@X@X",
"@X@X@X@X@X@X@X@X@XS.`.|.|.|.E.S.B.B.>.S Z S @X@X@X@X@X@X@X@X@X@X",
"c w @X@X@X@X@X@XX.`.`.`.`.u.[ [ E E E E Z m @X@X@X@X@X@X@X@X@X@X",
"Z Z Z Z G G m c O.S.|.@X@XZ Z E E E Z Z E S @X@X@X@X@X@X@X@X@X@X",
"m Z Z Z ) Z Z S S m m S m Z Z Z S m m m m m @X@X@X@X@X@X@X@X@X@X",
"@X@X@Xu.A.M.b.u.8.$.) E Z Z Z Z S S S S m S m m m m m m m m m m ",
"@X@X@X@XW.W.S.`.`.|.|.`.E.M.l.i.8.3.:.$.[ ) E ) ) E ) ) [ :.8.u.",
"@X@X@X@X@X< m E [ ,.0.h.M.S.`.`.|.`.|.`.`.`.`.`.`.`.`.`.`.`.`.`.",
"@X@X@X@X@X@Xj S Z Z S m m Z Z ) $.,.8.i.b.`.W.`.W.`.`.`.S.A.s.@X",
"@X@X@X@X@X@X@Xc S S j @X2 f f f 7 6 > +   @X@X@X@X@X@X@X@X@X@X@X"
};
