<?xml version="1.0" encoding="UTF-8" standalone="no"?>
<svg xmlns="http://www.w3.org/2000/svg" viewBox="0 0 2864 2864">
	<path fill="#9f0e22" d="m2859.9 2394.9c-444.76 85.143-1404.8 54.164-2546.2-104.95 75.26 31.937 133.04 68.253 202.98 113.56 1118.2 158.28 1852.9 153.12 2286.4 60.205 39.577-22.368 44.732-37.852 56.803-68.818"/>
	<path fill="#4997d9" d="m769.28 2116.2a840.16 840.16 0 0 1 -9.348 22.547c122.58-31.262 229.48-106.9 349.51-36.491 16.034-224.62 48.225-467.4 174.37-822.2 4.32-89.493 10.636-181.18 19.07-280.84-33.555 396.8-33.555 668-4.492 1176.8-156.68-24.477-439.34-6.69-576.59 46.577 11.185-26.04 27.436-62.37 47.489-106.34"/>
	<path fill="#0974c5" d="m573.18 1888.7c210.32-89.02 259.82-182.91 429.34-169.8 52.173-545.04 179.88-751.07 303.74-1078.2-101.56 168.26-201.66 336.22-296.09 496.09 0.005-0.03 0.017-0.072 0.02-0.102 100.29-169.82 207-348.74 315.05-527.44-188.36 499.77-230.84 1243.6-230.84 1425.6-76.943-40.188-346.85-21.852-661.78 104.85 26.442-49.064 75.225-136.25 140.56-250.94"/>
	<path fill="#095fa8" d="m1292.9 343.65c-301.56 419.81-317.24 1087.8-317.24 1269.8-224.16-64.993-472.99 65.033-693.94 204.02 153.38-235.4 613.36-936.78 1011.1-1473.8"/>
	<g fill="#09397f">
		<path d="m2849.2 2372.7c-400.14 76.657-1233.8 46.473-2267.2-72.134-100.61-11.573-389.65-46.443-563.34-68.874-9.435-15.464-14.262-40.351-14.262-70.596 644.02 68.487 2274.9 274.67 2836.7 167.8 2.547 11.986 8.995 18.436 8.251 43.808"/>
		<path d="m804.98 2031.9c1.102-0.182 2.2-0.374 3.302-0.557-14.066 30.406-27.083 58.715-38.802 84.418-0.067 0.15-0.127 0.305-0.19 0.461-20.052 43.975-36.304 80.306-47.49 106.34 137.25-53.267 419.92-71.054 576.6-46.577-28.88-505.67-29.053-776.68 3.892-1169.6 0.203-0.407 0.407-0.794 0.6-1.191-33.555 396.79-27.596 685.87 1.478 1194.7-156.69-24.572-463.1-0.828-600.35 52.443 19.557-45.575 55.57-123.88 100.97-220.47m-16.32 613.2c0.837-1.035 1.72-2.16 2.615-3.183 46.439-55.138 133.61-100.9 259.28-96.455 244.99 8.595 451.6 25.507 824.45 7.187-366.73-9.316-813.29-48.01-1351.5-124.21 133.79 77.767 245.03 194.87 265.17 216.66"/>
	</g>
	<path d="m769.48 2115.7c11.72-25.703 24.736-54.012 38.802-84.418 138.8-23.199 242.9-19.1 286.11 3.458 0-107.53 14.873-411.45 65.94-745.26 57.333-118.46 107.92-221.65 142.55-290.31-8.435 99.66-14.751 191.34-19.07 280.84-126.15 354.81-158.34 597.59-174.37 822.2-120.02-70.414-226.92 5.229-349.51 36.49a848.58 848.58 0 0 0 9.538 -23.008"/>
	<path d="m613.86 1817.5c36.378-63.518 76.72-133.57 120.3-208.81 82.04-16.92 163.26-17.99 241.51 4.706 0-82.199 3.203-263.64 34.52-476.58 94.423-159.86 194.53-327.83 296.08-496.09-123.85 327.12-251.57 533.14-303.74 1078.2-169.52-13.112-219.02 80.771-429.34 169.8a35957 35957 0 0 1 40.668 -71.205m1783.7-186.1c23.97 178.44-2.618 354.65-121.74 495.18-5.39 6.346 31.162 41.898 33.159 39.533 119.87-141.38 146.23-318.66 122.15-497.91-1.875-13.905-33.077-33.168-33.566-36.805"/>
	<path d="m2229 2053.2c83.421-9.081 191.43 0.92 264.33 45.285 17.827 10.847 7.426 39.736-1.834 53.605-13.202 19.744-39.963 28.4-61.448 34.56-47.155 13.521-98.59 10.23-147.07 9.952 5.614 0.032 18.724 39.454 33.17 39.535 64.25 0.378 139.13 6.41 194.93-31.258 44.792-30.25 19.732-81.158-8.343-111.91-70.749-77.526-207.75-90.096-306.9-79.304 3.79-0.41 19.814 40.994 33.169 39.538m-580.4-1866.7c-19.56 227.23-23.97 455.16-24.582 683.14-1.242 459.45 7.1 918.98 12.54 1378.4 0.225 18.843 47.543 49.12 47.574 52.157-5.4-456.28-13.396-912.64-12.56-1368.9 0.417-231.09 4.777-462.2 24.6-692.55 1.529-17.735-47.684-50.894-47.572-52.157m432.7 168.2c-12.377 617.36-47.99 1234-60.093 1851.4-0.366 18.523 47.624 49.685 47.574 52.157 12.112-617.37 47.726-1234 60.093-1851.4 0.377-18.52-47.625-49.702-47.574-52.167"/>
	<path d="m1495.1 1758.8c-12.928-2.291-28.239-38.782-30.164-39.152 415.4 74.357 840.36 72.152 1260.9 72.152 14.302 0 27.423 39.245 32.914 39.245-23.532 0-47.034 0.007-70.596 0.007-398.29 0-800.07-1.961-1193.1-72.251"/>
</svg>
